<svg id="Group_64875" data-name="Group 64875" xmlns="http://www.w3.org/2000/svg" width="19.512" height="11.252" viewBox="0 0 19.512 11.252">
  <g id="up-arrow-svgrepo-com" transform="translate(19.512 0) rotate(90)">
    <path id="Path_206060" data-name="Path 206060" d="M10.895,5.975a1.5,1.5,0,0,1-2.113.172L5.626,3.467,2.47,6.147A1.5,1.5,0,1,1,.529,3.861L4.655.357A1.5,1.5,0,0,1,6.6.357l4.127,3.5A1.5,1.5,0,0,1,10.895,5.975Z" transform="translate(0 0)" fill="#4669b2"/>
  </g>
  <g id="up-arrow-svgrepo-com-2" data-name="up-arrow-svgrepo-com" transform="translate(13.008 0) rotate(90)">
    <path id="Path_206060-2" data-name="Path 206060" d="M10.895,5.975a1.5,1.5,0,0,1-2.113.172L5.626,3.467,2.47,6.147A1.5,1.5,0,1,1,.529,3.861L4.655.357A1.5,1.5,0,0,1,6.6.357l4.127,3.5A1.5,1.5,0,0,1,10.895,5.975Z" transform="translate(0 0)" fill="#4669b2"/>
  </g>
  <g id="up-arrow-svgrepo-com-3" data-name="up-arrow-svgrepo-com" transform="translate(6.504 0) rotate(90)">
    <path id="Path_206060-3" data-name="Path 206060" d="M10.895,5.975a1.5,1.5,0,0,1-2.113.172L5.626,3.467,2.47,6.147A1.5,1.5,0,1,1,.529,3.861L4.655.357A1.5,1.5,0,0,1,6.6.357l4.127,3.5A1.5,1.5,0,0,1,10.895,5.975Z" transform="translate(0 0)" fill="#4669b2"/>
  </g>
</svg>
