<svg xmlns="http://www.w3.org/2000/svg" width="29.266" height="22.69" viewBox="0 0 29.266 22.69">
  <g id="camera" transform="translate(-1233.72 -235.478)">
    <path id="Path_209399" data-name="Path 209399" d="M1234.842,248.1c0,1.638,0,3.277,0,4.915a2.445,2.445,0,0,0,.216,1.234,2.018,2.018,0,0,0,1.9,1.081c1.792,0,3.583,0,5.375,0a2.066,2.066,0,0,1,.313.013.546.546,0,0,1,.476.566.535.535,0,0,1-.551.513c-.732.005-1.464,0-2.2,0-1.262,0-2.526.04-3.785-.021a2.919,2.919,0,0,1-2.528-1.674,3.175,3.175,0,0,1-.314-1.462c-.042-2.356,0-4.711-.018-7.067-.007-1.129-.018-2.259,0-3.388a2.934,2.934,0,0,1,2.188-2.812,5.815,5.815,0,0,1,1.468-.109c.167,0,.215-.048.212-.214-.01-.446,0-.892,0-1.339a.572.572,0,0,1,.65-.656c1.22,0,2.44.006,3.66,0a.579.579,0,0,1,.653.648c-.017.453,0,.906-.005,1.359,0,.138.028.2.183.2q1.359-.008,2.719,0a.188.188,0,0,0,.206-.134c.244-.728.481-1.458.729-2.185a3.3,3.3,0,0,1,.667-1.389,2.161,2.161,0,0,1,1.587-.7c1.973.008,3.947.031,5.919-.01a2.378,2.378,0,0,1,2.293,1.663c.255.81.575,1.6.873,2.395.134.357.143.354.52.354.6,0,1.21-.013,1.814.007a2.939,2.939,0,0,1,1.97.808,2.9,2.9,0,0,1,.927,1.849,6.573,6.573,0,0,1,.009.761c.012,3.382.022,6.763,0,10.144a3.029,3.029,0,0,1-1.857,2.751,2.652,2.652,0,0,1-1.094.22c-.3-.007-.6,0-.9,0a.533.533,0,0,1-.563-.495.527.527,0,0,1,.493-.585c.248-.026.5-.013.752-.015a1.988,1.988,0,0,0,1.99-1.405,1.891,1.891,0,0,0,.074-.62q0-4.957,0-9.914a6.574,6.574,0,0,0-.025-.853,1.837,1.837,0,0,0-1.386-1.487,3.3,3.3,0,0,0-.807-.067c-.732.006-1.464,0-2.2,0a.526.526,0,0,1-.516-.377q-.584-1.607-1.171-3.213a1.132,1.132,0,0,0-1.167-.815q-2.876,0-5.752,0a1.143,1.143,0,0,0-1.281.938c-.325.986-.657,1.969-.982,2.955a.816.816,0,0,1-.778.514h-6c-1.045,0-2.091-.02-3.136.007a1.843,1.843,0,0,0-1.831,1.876C1234.848,244.617,1234.842,246.36,1234.842,248.1Z" fill="#fff"/>
    <path id="Path_209400" data-name="Path 209400" d="M1499.962,429.7a7.436,7.436,0,1,1-7.358-7.434A7.439,7.439,0,0,1,1499.962,429.7Z" transform="translate(-240.853 -178.973)" fill="#fff"/>
    <path id="Path_209401" data-name="Path 209401" d="M1326.924,405.683q0,2.562,0,5.123a.814.814,0,0,1-.006.167.264.264,0,0,1-.26.229.254.254,0,0,1-.264-.193.724.724,0,0,1-.027-.248q0-5.081,0-10.163c0-.021,0-.042,0-.063.008-.231.115-.371.282-.369s.274.137.274.372Q1326.925,403.111,1326.924,405.683Z" transform="translate(-88.769 -157.797)" fill="#fff"/>
    <path id="Path_209402" data-name="Path 209402" d="M1366.2,405.6q0-2.561,0-5.122c0-.107-.026-.222.076-.311a.249.249,0,0,1,.266-.073.259.259,0,0,1,.186.229c0,.063,0,.125,0,.188q0,5.1,0,10.2a1.085,1.085,0,0,1-.006.167.249.249,0,0,1-.27.235.238.238,0,0,1-.254-.247c-.008-.279-.005-.557-.005-.836q0-2.216,0-4.432Z" transform="translate(-126.93 -157.713)" fill="#fff"/>
    <path id="Path_209403" data-name="Path 209403" d="M1511.5,454.989a6.33,6.33,0,1,1,6.367,6.336A6.324,6.324,0,0,1,1511.5,454.989Z" transform="translate(-266.159 -204.263)" fill="#4e6be2"/>
    <path id="Path_209404" data-name="Path 209404" d="M1557.433,489.82a4.884,4.884,0,1,1-4.862-4.9A4.872,4.872,0,0,1,1557.433,489.82Z" transform="translate(-300.808 -239.006)" fill="#fff"/>
    <path id="Path_209405" data-name="Path 209405" d="M1561.077,502.4a4.328,4.328,0,1,1,4.269,4.34A4.331,4.331,0,0,1,1561.077,502.4Z" transform="translate(-313.658 -251.603)" fill="#4e6be2"/>
  </g>
</svg>
