<svg id="Group_64695" data-name="Group 64695" xmlns="http://www.w3.org/2000/svg" width="34.574" height="21.695" viewBox="0 0 34.574 21.695">
  <g id="payment-method-svgrepo-com_2_" data-name="payment-method-svgrepo-com (2)" transform="translate(34.574) rotate(90)">
    <path id="Path_208913" data-name="Path 208913" d="M7.651,27.741a1.3,1.3,0,1,0,1.3,1.3A1.3,1.3,0,0,0,7.651,27.741Zm0-.832A4.7,4.7,0,0,0,10.7,18.63a3.456,3.456,0,0,1-1.544.353c-.12,0-.247-.007-.346-.014A2.637,2.637,0,0,1,6.9,17.777c-.042-.063-.085-.127-.12-.19a4.7,4.7,0,0,0,.874,9.322ZM6.036,21.183a1.285,1.285,0,0,1,.395-.938,1.683,1.683,0,0,1,.98-.423V19.3a.126.126,0,0,1,.127-.127H8a.126.126,0,0,1,.127.127v.536a1.438,1.438,0,0,1,.769.374,1.189,1.189,0,0,1,.353.9,1.133,1.133,0,0,1-.346.9,3.969,3.969,0,0,1-1.086.628,1.227,1.227,0,0,0-.437.275.539.539,0,0,0-.12.36.588.588,0,0,0,.106.36.4.4,0,0,0,.338.141.441.441,0,0,0,.36-.169.721.721,0,0,0,.127-.388.14.14,0,0,1,.148-.127l.762.014a.146.146,0,0,1,.148.155,1.369,1.369,0,0,1-.324.839,1.39,1.39,0,0,1-.8.451v.571A.126.126,0,0,1,8,25.238H7.531a.126.126,0,0,1-.127-.127v-.557a1.5,1.5,0,0,1-.86-.395,1.191,1.191,0,0,1-.367-.889,1.139,1.139,0,0,1,.346-.9,3.683,3.683,0,0,1,1.093-.606,1.253,1.253,0,0,0,.43-.275.593.593,0,0,0,.12-.388.52.52,0,0,0-.12-.353.432.432,0,0,0-.346-.134.579.579,0,0,0-.444.176.715.715,0,0,0-.169.437.152.152,0,0,1-.148.134l-.762-.014A.161.161,0,0,1,6.036,21.183Zm14.794-5.86c-.388.3-4.443,4.8-5.528,5.437v11.67a2.143,2.143,0,0,1-2.144,2.144H2.144A2.143,2.143,0,0,1,0,32.431V12A2.143,2.143,0,0,1,2.144,9.858h4.8l-.2,1.678-.169.148H4.457a2.261,2.261,0,0,1,.049.818,2.173,2.173,0,0,1-1.657,1.826,2.144,2.144,0,0,1-1.015-.007V30.237a2.074,2.074,0,0,1,1.156.106,2.21,2.21,0,0,1,1.044.853,2.083,2.083,0,0,1,.331,1.558h6.579a2.09,2.09,0,0,1,.317-1.537,2.131,2.131,0,0,1,2.214-.973V14.724h0V10.267a8.168,8.168,0,0,0-1.587,2.271s-.409,4.584-2.729,4.584a1.594,1.594,0,0,1-.183-.007s-1.756-.148-.3-5.176l.649-5.578a12.674,12.674,0,0,1,2.729-5.127V.606A.606.606,0,0,1,12.658,0h6.53a.6.6,0,0,1,.6.536c.233,2.151,1.121,10.077,1.65,11.438a3.534,3.534,0,0,1,.226.8A2.727,2.727,0,0,1,20.831,15.323Z" fill="#f6f6f6"/>
  </g>
</svg>
