<svg xmlns="http://www.w3.org/2000/svg" width="18.636" height="14.349" viewBox="0 0 18.636 14.349">
  <g id="Group_97170" data-name="Group 97170" transform="translate(-3.25 -5.394)">
    <path id="Path_208988" data-name="Path 208988" d="M2,7.778A4.454,4.454,0,0,1,3.637,4.4,6.1,6.1,0,0,1,7.591,3h7.454c3.087,0,5.591,2.148,5.591,4.778v9.57H7.591C4.5,17.349,2,15.2,2,12.57Zm16.772,7.976V7.778a3.494,3.494,0,0,0-3.727-3.184H7.591a4.06,4.06,0,0,0-2.636.93A2.967,2.967,0,0,0,3.864,7.778V12.57a3.494,3.494,0,0,0,3.727,3.184Z" transform="translate(1.25 2.394)" fill="#fff"/>
    <g id="Group_97180" data-name="Group 97180">
      <circle id="Ellipse_7042" data-name="Ellipse 7042" cx="1.593" cy="1.593" r="1.593" transform="translate(13.921 11.328)" fill="none" stroke="#f5f7f6" stroke-width="1"/>
      <circle id="Ellipse_7507" data-name="Ellipse 7507" cx="1.593" cy="1.593" r="1.593" transform="translate(8.611 11.328)" fill="none" stroke="#f5f7f6" stroke-width="1"/>
    </g>
  </g>
</svg>
