<svg id="Screenshot-2022-08-01-000205" xmlns="http://www.w3.org/2000/svg" xmlns:xlink="http://www.w3.org/1999/xlink" width="17.968" height="25.766" viewBox="0 0 17.968 25.766">
  <defs>
    <linearGradient id="linear-gradient" x1="0.5" x2="0.5" y2="1" gradientUnits="objectBoundingBox">
      <stop offset="0" stop-color="#01b6eb"/>
      <stop offset="0.669" stop-color="#4e6be2"/>
      <stop offset="1" stop-color="#0c00ff"/>
    </linearGradient>
  </defs>
  <path id="Path_209411" data-name="Path 209411" d="M77.94-357.669a4.755,4.755,0,0,0-3.726,5.252,5.975,5.975,0,0,0,1.579,3.81,4.409,4.409,0,0,0,5.336.979,4.964,4.964,0,0,0,2.494-3.042,5.545,5.545,0,0,0,.274-2.221l.011-1.431-.389-.789a4.61,4.61,0,0,0-3.189-2.515A4.3,4.3,0,0,0,77.94-357.669Zm2.41,1.431a3.286,3.286,0,0,1,2.242,2.684c0,.379-.368.305-.916-.179a4.131,4.131,0,0,0-3.61-.8,4.418,4.418,0,0,0-1.842,1.01c-.211.232-.684.284-.684.074a4.737,4.737,0,0,1,.158-.674A3.554,3.554,0,0,1,80.35-356.237Z" transform="translate(-71.541 357.818)" fill="url(#linear-gradient)"/>
  <path id="Path_209412" data-name="Path 209412" d="M55.525-242.777a6.055,6.055,0,0,0-4.3,2.684,7.745,7.745,0,0,0-.842,2.778c-.116.631-.474,2.568-.789,4.3S49-229.8,49-229.726a.686.686,0,0,0,.21.358c.2.2.347.21,3.715.21,3.273,0,3.526-.011,3.684-.189a.762.762,0,0,0,.095-.821c-.21-.316-.579-.358-3.389-.358-2.673,0-1.126.581-1.073.4.032-.095.368-1.863.737-3.915.674-3.631.916-4.662,1.137-4.8.053-.042-.81.156.189,1.146a20.47,20.47,0,0,0,1.947,1.8,1.18,1.18,0,0,0,.663-.358c.253-.379.074-.642-1.726-2.452-1.979-1.989-1.915-1.852-1.073-2.242a5.66,5.66,0,0,1,6.041.8c.684.631,1.263.61,1.421-.084.147-.6-1.326-1.768-2.831-2.252A9.344,9.344,0,0,0,55.525-242.777Z" transform="translate(-49 254.924)" fill="url(#linear-gradient)"/>
  <path id="Path_209413" data-name="Path 209413" d="M138.772-196.615a3.455,3.455,0,0,0-2.548,3.807,3.4,3.4,0,0,0,5.695,1.992,3.2,3.2,0,0,0,1.074-2.474,3.357,3.357,0,0,0-2.148-3.177A3.639,3.639,0,0,0,138.772-196.615Zm-1.044,3.592a8.333,8.333,0,0,0,.852.133l.518.052.022.978c.015.763,0,.985-.074.985a2.8,2.8,0,0,1-1.259-.748c-.5-.533-.874-1.622-.518-1.518C137.335-193.12,137.542-193.068,137.728-193.023Zm4.3.037a2.676,2.676,0,0,1-.607,1.333,2.926,2.926,0,0,1-1.3.778c-.074,0-.089-.222-.074-.985l.022-.978.533-.052a6.993,6.993,0,0,0,.926-.163C142.045-193.194,142.023-193.194,142.023-192.986Z" transform="translate(-127.011 213.66)" fill="url(#linear-gradient)"/>
  <path id="Path_209414" data-name="Path 209414" d="M182.122-155.676a.585.585,0,0,0-.185.5,4.686,4.686,0,0,1-.459,1.755,5.507,5.507,0,0,1-1.814,1.881,5.271,5.271,0,0,1-1.851.5.592.592,0,0,0-.5.185c-.23.222-.288.394-.08.66.156.2.228.132.762.088a4.5,4.5,0,0,0,1.911-.533,5.271,5.271,0,0,0,2.97-4.281c.044-.526.037-.555-.141-.741C182.492-155.906,182.351-155.913,182.122-155.676Z" transform="translate(-164.924 175.832)" fill="url(#linear-gradient)"/>
</svg>
