<svg xmlns="http://www.w3.org/2000/svg" width="21.236" height="15.427" viewBox="0 0 21.236 15.427">
  <g id="id-card-svgrepo-com" transform="translate(0 0)">
    <path id="Path_208975" data-name="Path 208975" d="M21.236,144.358v11.2a1.936,1.936,0,0,1-1.68,2.115H1.68A1.935,1.935,0,0,1,0,155.555v-11.2a1.935,1.935,0,0,1,1.68-2.115H19.556A1.936,1.936,0,0,1,21.236,144.358Z" transform="translate(0 -142.243)" fill="#879eff"/>
    <path id="Path_208977" data-name="Path 208977" d="M95.371,305.828v1.216H92.715v-1.216a1.226,1.226,0,0,1,1.328-1.088,1.484,1.484,0,0,1,.939.319A1,1,0,0,1,95.371,305.828Z" transform="translate(-88.165 -295.828)" fill="#eae9ef"/>
    <path id="Path_208978" data-name="Path 208978" d="M94.043,237.806a1.328,1.328,0,1,1-1.328,1.328A1.328,1.328,0,0,1,94.043,237.806Z" transform="translate(-88.165 -232.463)" fill="#eae9ef"/>
    <path id="Path_208979" data-name="Path 208979" d="M1.256,155.555v-11.2a1.914,1.914,0,0,1,1.607-2.115H1.607A1.914,1.914,0,0,0,0,144.358v11.2a1.914,1.914,0,0,0,1.607,2.115H2.863A1.914,1.914,0,0,1,1.256,155.555Z" transform="translate(1.165 -142.243)" fill="#879eff"/>
    <g id="Group_64882" data-name="Group 64882" transform="translate(3.1 3.7)">
      <path id="Path_208980" data-name="Path 208980" d="M54.69,198.284H49.144a.391.391,0,0,1-.391-.391v-6.953a.391.391,0,0,1,.391-.391H54.69a.391.391,0,0,1,.391.391v6.953A.391.391,0,0,1,54.69,198.284Zm-5.156-.781H54.3v-6.171H49.534Z" transform="translate(-48.753 -190.55)" fill="#ebeaef"/>
      <rect id="Rectangle_12456" data-name="Rectangle 12456" width="7.109" height="0.781" transform="translate(7.757 1.406)" fill="#ebeaef"/>
      <rect id="Rectangle_12457" data-name="Rectangle 12457" width="4.688" height="0.781" transform="translate(10.178 2.786)" fill="#ebeaef"/>
      <rect id="Rectangle_12458" data-name="Rectangle 12458" width="7.109" height="0.781" transform="translate(7.757 4.166)" fill="#ebeaef"/>
      <rect id="Rectangle_12459" data-name="Rectangle 12459" width="4.688" height="0.781" transform="translate(10.178 5.546)" fill="#ebeaef"/>
    </g>
  </g>
</svg>
