<svg xmlns="http://www.w3.org/2000/svg" width="22.311" height="21.962" viewBox="0 0 22.311 21.962">
  <g id="logout-svgrepo-com" transform="translate(0.413 8.939)">
    <g id="Group_64812" data-name="Group 64812" transform="translate(-0.413 -8.939)">
      <g id="Group_64811" data-name="Group 64811" transform="translate(0 0)">
        <path id="Path_208939" data-name="Path 208939" d="M75.638,6.5A10.9,10.9,0,0,0,69.2,8.588a.509.509,0,0,0-.134.68l1.768,2.868a.509.509,0,0,0,.733.145,6.421,6.421,0,1,1,0,10.4.509.509,0,0,0-.733.145l-1.768,2.868a.509.509,0,0,0,.134.68A10.981,10.981,0,1,0,75.638,6.5Z" transform="translate(-64.308 -6.5)" fill="#d27979"/>
        <path id="Path_208940" data-name="Path 208940" d="M6.371,99.517a.464.464,0,0,0-.023-.476l-1.09-1.635h6.595a1.642,1.642,0,1,0,0-3.285H5.259l1.09-1.635a.464.464,0,0,0-.386-.722H2.82a.464.464,0,0,0-.386.207L.078,95.506a.464.464,0,0,0,0,.515l2.356,3.535a.464.464,0,0,0,.386.207H5.962A.464.464,0,0,0,6.371,99.517Z" transform="translate(0 -84.783)" fill="#d27979"/>
      </g>
    </g>
  </g>
</svg>
