<svg xmlns="http://www.w3.org/2000/svg" xmlns:xlink="http://www.w3.org/1999/xlink" width="115.791" height="57.765" viewBox="0 0 115.791 57.765">
  <defs>
    <linearGradient id="linear-gradient" x1="0.148" y1="1" x2="0.771" y2="-0.171" gradientUnits="objectBoundingBox">
      <stop offset="0" stop-color="#ffa200"/>
      <stop offset="1" stop-color="#ffd600"/>
    </linearGradient>
  </defs>
  <g id="money-svgrepo-com" transform="translate(0 0)">
    <path id="Path_208975" data-name="Path 208975" d="M0,172.059V130.483A8.093,8.093,0,0,1,8.083,122.4H85.167a8.093,8.093,0,0,1,8.083,8.083v2.441H87.892a5.053,5.053,0,0,0-5.049,5.049v1.351a8.169,8.169,0,0,1-6.684-8.035A9.152,9.152,0,0,1,76.4,129.3H16.379a7.964,7.964,0,0,1,.142,1.493,8.179,8.179,0,0,1-8.178,8.178A9.661,9.661,0,0,1,6.9,138.85v24.841a9.647,9.647,0,0,1,1.446-.119,8.164,8.164,0,0,1,8.178,8.178,7.6,7.6,0,0,1-.142,1.493H66.63l-.024,2.939v3.176c0,.261.047.545.071.806H8.083A8.129,8.129,0,0,1,0,172.059Zm98.583,3.318H87.869a.8.8,0,0,0-.806.806v3.176a.8.8,0,0,0,.806.806H98.583a.8.8,0,0,0,.806-.806v-3.2A.794.794,0,0,0,98.583,175.377Zm0-6.376H87.869a.8.8,0,0,0-.806.806v3.176a.8.8,0,0,0,.806.806H98.583a.8.8,0,0,0,.806-.806v-3.176A.8.8,0,0,0,98.583,169Zm0-6.353H87.869a.8.8,0,0,0-.806.806v3.176a.8.8,0,0,0,.806.806H98.583a.8.8,0,0,0,.806-.806v-3.176A.8.8,0,0,0,98.583,162.648Zm0-6.376H87.869a.8.8,0,0,0-.806.806v3.176a.8.8,0,0,0,.806.806H98.583a.8.8,0,0,0,.806-.806v-3.176A.8.8,0,0,0,98.583,156.272Zm0-6.353H87.869a.8.8,0,0,0-.806.806v3.153a.8.8,0,0,0,.806.806H98.583a.8.8,0,0,0,.806-.806V150.7A.794.794,0,0,0,98.583,149.92Zm0-6.376H87.869a.8.8,0,0,0-.806.806v3.176a.794.794,0,0,0,.782.806H98.559a.8.8,0,0,0,.806-.806v-3.176A.766.766,0,0,0,98.583,143.544Zm0-6.353H87.869a.8.8,0,0,0-.806.806v3.176a.8.8,0,0,0,.806.806H98.583a.8.8,0,0,0,.806-.806V138A.8.8,0,0,0,98.583,137.191Zm16.4,38.186H104.272a.8.8,0,0,0-.806.806v3.176a.8.8,0,0,0,.806.806h10.714a.8.8,0,0,0,.806-.806v-3.2A.827.827,0,0,0,114.986,175.377Zm0-6.376H104.272a.8.8,0,0,0-.806.806v3.176a.8.8,0,0,0,.806.806h10.714a.8.8,0,0,0,.806-.806v-3.176A.83.83,0,0,0,114.986,169Zm0-6.353H104.272a.8.8,0,0,0-.806.806v3.176a.8.8,0,0,0,.806.806h10.714a.8.8,0,0,0,.806-.806v-3.176A.831.831,0,0,0,114.986,162.648ZM82.2,175.377H71.49a.8.8,0,0,0-.806.806v3.176a.8.8,0,0,0,.806.806H82.2a.8.8,0,0,0,.806-.806v-3.2A.794.794,0,0,0,82.2,175.377Zm.806-5.57A.8.8,0,0,0,82.2,169H71.49a.8.8,0,0,0-.806.806v3.176a.8.8,0,0,0,.806.806H82.2a.8.8,0,0,0,.806-.806Zm0-6.353a.8.8,0,0,0-.806-.806H71.49a.8.8,0,0,0-.806.806v3.176a.8.8,0,0,0,.806.806H82.2a.8.8,0,0,0,.806-.806Zm0-6.376a.8.8,0,0,0-.806-.806H71.49a.8.8,0,0,0-.806.806v3.176a.8.8,0,0,0,.806.806H82.2a.8.8,0,0,0,.806-.806Zm0-6.376a.8.8,0,0,0-.806-.806H71.49a.8.8,0,0,0-.806.806v3.176a.8.8,0,0,0,.806.806H82.2a.8.8,0,0,0,.806-.806ZM46.625,133.564a17.706,17.706,0,1,1-17.706,17.706A17.708,17.708,0,0,1,46.625,133.564Zm1.541,4.551H46.151a.536.536,0,0,0-.545.545v2.418a6.549,6.549,0,0,0-3.745,1.707,5.181,5.181,0,0,0-1.588,3.864,4.937,4.937,0,0,0,1.493,3.911,16.007,16.007,0,0,0,4.741,2.631,5.194,5.194,0,0,1,1.873,1.185,2.468,2.468,0,0,1,.521,1.683,2.148,2.148,0,0,1-.521,1.517,1.944,1.944,0,0,1-1.517.593,2.663,2.663,0,0,1-1.944-.759,2.969,2.969,0,0,1-.711-1.9.648.648,0,0,0-.664-.569l-3.318.071a.643.643,0,0,0-.64.664,5.736,5.736,0,0,0,1.707,4.077,7.326,7.326,0,0,0,4.267,1.849v2.276a.551.551,0,0,0,.545.545h2.015a.551.551,0,0,0,.545-.545v-2.323a6.424,6.424,0,0,0,3.342-1.612,5.106,5.106,0,0,0,1.517-3.864,4.918,4.918,0,0,0-1.517-3.887,17.169,17.169,0,0,0-4.717-2.726,5.433,5.433,0,0,1-1.9-1.209,2.358,2.358,0,0,1-.5-1.541,2.485,2.485,0,0,1,.474-1.541,1.731,1.731,0,0,1,1.446-.616,1.835,1.835,0,0,1,1.541.735,3.211,3.211,0,0,1,.569,1.683.648.648,0,0,0,.664.569l3.318-.047a.643.643,0,0,0,.64-.664,6.017,6.017,0,0,0-1.4-3.65,6.1,6.1,0,0,0-3.484-1.967v-2.513A.482.482,0,0,0,48.165,138.115ZM15.976,151.271a4.907,4.907,0,1,0,4.907-4.907A4.916,4.916,0,0,0,15.976,151.271Z" transform="translate(0 -122.4)" fill="url(#linear-gradient)"/>
  </g>
</svg>
