<svg id="money-svgrepo-com" xmlns="http://www.w3.org/2000/svg" xmlns:xlink="http://www.w3.org/1999/xlink" width="61.402" height="30.632" viewBox="0 0 61.402 30.632">
  <defs>
    <linearGradient id="linear-gradient" x1="0.148" y1="1" x2="0.771" y2="-0.171" gradientUnits="objectBoundingBox">
      <stop offset="0" stop-color="#01b6eb"/>
      <stop offset="0.441" stop-color="#4e6be2"/>
      <stop offset="1" stop-color="#0c00ff"/>
    </linearGradient>
  </defs>
  <path id="Path_208975" data-name="Path 208975" d="M0,148.733V126.686A4.291,4.291,0,0,1,4.286,122.4H45.162a4.291,4.291,0,0,1,4.286,4.286v1.295H46.608a2.68,2.68,0,0,0-2.677,2.677v.716a4.332,4.332,0,0,1-3.545-4.261,4.853,4.853,0,0,1,.126-1.056H8.686a4.223,4.223,0,0,1,.075.792,4.337,4.337,0,0,1-4.336,4.336,5.119,5.119,0,0,1-.767-.063V144.3a5.123,5.123,0,0,1,.767-.063,4.329,4.329,0,0,1,4.336,4.337,4.031,4.031,0,0,1-.075.792H35.333l-.013,1.559V152.6c0,.138.025.289.038.427H4.286A4.31,4.31,0,0,1,0,148.733Zm52.277,1.76H46.6a.424.424,0,0,0-.427.427V152.6a.424.424,0,0,0,.427.427h5.681a.424.424,0,0,0,.427-.427v-1.7A.421.421,0,0,0,52.277,150.493Zm0-3.381H46.6a.424.424,0,0,0-.427.427v1.684a.424.424,0,0,0,.427.427h5.681a.424.424,0,0,0,.427-.427v-1.684A.424.424,0,0,0,52.277,147.112Zm0-3.369H46.6a.424.424,0,0,0-.427.427v1.684a.424.424,0,0,0,.427.427h5.681a.424.424,0,0,0,.427-.427V144.17A.424.424,0,0,0,52.277,143.743Zm0-3.381H46.6a.424.424,0,0,0-.427.427v1.684a.424.424,0,0,0,.427.427h5.681a.424.424,0,0,0,.427-.427v-1.684A.424.424,0,0,0,52.277,140.362Zm0-3.369H46.6a.424.424,0,0,0-.427.427v1.672a.424.424,0,0,0,.427.427h5.681a.424.424,0,0,0,.427-.427v-1.684A.421.421,0,0,0,52.277,136.993Zm0-3.381H46.6a.424.424,0,0,0-.427.427v1.684a.421.421,0,0,0,.415.427h5.681a.424.424,0,0,0,.427-.427v-1.684A.406.406,0,0,0,52.277,133.612Zm0-3.369H46.6a.424.424,0,0,0-.427.427v1.684a.424.424,0,0,0,.427.427h5.681a.424.424,0,0,0,.427-.427v-1.684A.424.424,0,0,0,52.277,130.243Zm8.7,20.249H55.293a.424.424,0,0,0-.427.427V152.6a.424.424,0,0,0,.427.427h5.681a.424.424,0,0,0,.427-.427v-1.7A.438.438,0,0,0,60.975,150.493Zm0-3.381H55.293a.424.424,0,0,0-.427.427v1.684a.424.424,0,0,0,.427.427h5.681a.424.424,0,0,0,.427-.427v-1.684A.44.44,0,0,0,60.975,147.112Zm0-3.369H55.293a.424.424,0,0,0-.427.427v1.684a.424.424,0,0,0,.427.427h5.681a.424.424,0,0,0,.427-.427V144.17A.44.44,0,0,0,60.975,143.743Zm-17.384,6.75H37.91a.424.424,0,0,0-.427.427V152.6a.424.424,0,0,0,.427.427h5.681a.424.424,0,0,0,.427-.427v-1.7A.421.421,0,0,0,43.591,150.493Zm.427-2.954a.424.424,0,0,0-.427-.427H37.91a.424.424,0,0,0-.427.427v1.684a.424.424,0,0,0,.427.427h5.681a.424.424,0,0,0,.427-.427Zm0-3.369a.424.424,0,0,0-.427-.427H37.91a.424.424,0,0,0-.427.427v1.684a.424.424,0,0,0,.427.427h5.681a.424.424,0,0,0,.427-.427Zm0-3.381a.424.424,0,0,0-.427-.427H37.91a.424.424,0,0,0-.427.427v1.684a.424.424,0,0,0,.427.427h5.681a.424.424,0,0,0,.427-.427Zm0-3.381a.424.424,0,0,0-.427-.427H37.91a.424.424,0,0,0-.427.427v1.684a.424.424,0,0,0,.427.427h5.681a.424.424,0,0,0,.427-.427ZM24.724,128.32a9.389,9.389,0,1,1-9.389,9.389A9.39,9.39,0,0,1,24.724,128.32Zm.817,2.413H24.473a.284.284,0,0,0-.289.289V132.3a3.473,3.473,0,0,0-1.986.9,2.748,2.748,0,0,0-.842,2.049,2.618,2.618,0,0,0,.792,2.074,8.488,8.488,0,0,0,2.514,1.4,2.755,2.755,0,0,1,.993.628,1.309,1.309,0,0,1,.277.892,1.139,1.139,0,0,1-.277.8,1.031,1.031,0,0,1-.8.314,1.412,1.412,0,0,1-1.031-.4,1.574,1.574,0,0,1-.377-1.006.343.343,0,0,0-.352-.3l-1.76.038a.341.341,0,0,0-.339.352,3.042,3.042,0,0,0,.905,2.162,3.885,3.885,0,0,0,2.263.98V144.4a.292.292,0,0,0,.289.289h1.068a.292.292,0,0,0,.289-.289v-1.232a3.407,3.407,0,0,0,1.772-.855,2.708,2.708,0,0,0,.8-2.049,2.608,2.608,0,0,0-.8-2.061,9.1,9.1,0,0,0-2.5-1.445,2.881,2.881,0,0,1-1.006-.641,1.251,1.251,0,0,1-.264-.817,1.318,1.318,0,0,1,.251-.817.918.918,0,0,1,.767-.327.973.973,0,0,1,.817.39,1.7,1.7,0,0,1,.3.892.343.343,0,0,0,.352.3l1.76-.025a.341.341,0,0,0,.339-.352,3.191,3.191,0,0,0-.742-1.936,3.236,3.236,0,0,0-1.848-1.043v-1.332A.255.255,0,0,0,25.541,130.734ZM8.472,137.71a2.6,2.6,0,1,0,2.6-2.6A2.607,2.607,0,0,0,8.472,137.71Z" transform="translate(0 -122.4)" fill="url(#linear-gradient)"/>
</svg>
