<svg xmlns="http://www.w3.org/2000/svg" width="57.106" height="46.515" viewBox="0 0 57.106 46.515">
  <g id="Group_1826" data-name="Group 1826" transform="translate(1.5 1.5)">
    <rect id="Rectangle_79" data-name="Rectangle 79" width="54.106" height="37.273" rx="5" fill="none" stroke="#4669b2" stroke-miterlimit="10" stroke-width="3"/>
    <line id="Line_4" data-name="Line 4" x2="54.288" transform="translate(0 28.077)" fill="none" stroke="#4669b2" stroke-miterlimit="10" stroke-width="3"/>
    <line id="Line_5" data-name="Line 5" y2="6.352" transform="translate(29.716 37.163)" fill="none" stroke="#4669b2" stroke-miterlimit="10" stroke-width="3"/>
    <line id="Line_6" data-name="Line 6" x1="12.742" transform="translate(20.197 43.515)" fill="none" stroke="#4669b2" stroke-linecap="round" stroke-miterlimit="10" stroke-width="3"/>
    <line id="Line_7" data-name="Line 7" y2="6.352" transform="translate(23.373 37.163)" fill="none" stroke="#4669b2" stroke-miterlimit="10" stroke-width="3"/>
    <path id="Path_23" data-name="Path 23" d="M635.084,522.791l5.428-9.308a.418.418,0,0,1,.676-.067l4.148,4.7a.416.416,0,0,0,.668-.057l2.331-3.751a.417.417,0,0,1,.684-.036l4.022,5.129a.42.42,0,0,0,.673-.018l6.866-9.832" transform="translate(-620.427 -499.821)" fill="none" stroke="#4669b2" stroke-linecap="round" stroke-miterlimit="10" stroke-width="3"/>
  </g>
</svg>
