<svg id="notes" xmlns="http://www.w3.org/2000/svg" width="46.721" height="46.721" viewBox="0 0 46.721 46.721">
  <g id="Group_15" data-name="Group 15" transform="translate(11.68 13.627)">
    <g id="Group_14" data-name="Group 14">
      <path id="Path_17" data-name="Path 17" d="M146.494,149.333h-17.52a.973.973,0,1,0,0,1.947h17.52a.973.973,0,1,0,0-1.947Z" transform="translate(-128 -149.333)" fill="#4669b2"/>
    </g>
  </g>
  <g id="Group_17" data-name="Group 17" transform="translate(3.893 35.041)">
    <g id="Group_16" data-name="Group 16">
      <path id="Path_18" data-name="Path 18" d="M45.587,384a2.92,2.92,0,1,0,2.92,2.92A2.924,2.924,0,0,0,45.587,384Zm0,3.893a.973.973,0,1,1,.973-.973A.974.974,0,0,1,45.587,387.893Z" transform="translate(-42.667 -384)" fill="#4669b2"/>
    </g>
  </g>
  <g id="Group_19" data-name="Group 19" transform="translate(3.893 27.254)">
    <g id="Group_18" data-name="Group 18">
      <path id="Path_19" data-name="Path 19" d="M45.587,298.667a2.92,2.92,0,1,0,2.92,2.92A2.924,2.924,0,0,0,45.587,298.667Zm0,3.893a.973.973,0,1,1,.973-.973A.974.974,0,0,1,45.587,302.56Z" transform="translate(-42.667 -298.667)" fill="#4669b2"/>
    </g>
  </g>
  <g id="Group_21" data-name="Group 21" transform="translate(3.893 19.467)">
    <g id="Group_20" data-name="Group 20">
      <path id="Path_20" data-name="Path 20" d="M45.587,213.333a2.92,2.92,0,1,0,2.92,2.92A2.924,2.924,0,0,0,45.587,213.333Zm0,3.893a.973.973,0,1,1,.973-.973A.974.974,0,0,1,45.587,217.226Z" transform="translate(-42.667 -213.333)" fill="#4669b2"/>
    </g>
  </g>
  <g id="Group_23" data-name="Group 23" transform="translate(3.893 11.68)">
    <g id="Group_22" data-name="Group 22">
      <path id="Path_21" data-name="Path 21" d="M45.587,128a2.92,2.92,0,1,0,2.92,2.92A2.924,2.924,0,0,0,45.587,128Zm0,3.893a.973.973,0,1,1,.973-.973A.974.974,0,0,1,45.587,131.893Z" transform="translate(-42.667 -128)" fill="#4669b2"/>
    </g>
  </g>
  <g id="Group_25" data-name="Group 25">
    <g id="Group_24" data-name="Group 24">
      <path id="Path_22" data-name="Path 22" d="M41.617,9.734a5.069,5.069,0,0,0-3.607,1.5l-2.685,2.685-.284.284V6.813a2.924,2.924,0,0,0-2.92-2.92H27.075a2.915,2.915,0,0,0-2.741-1.947H20.88a3.873,3.873,0,0,0-6.72,0H10.707A2.915,2.915,0,0,0,7.966,3.893H2.92A2.924,2.924,0,0,0,0,6.813V43.8a2.924,2.924,0,0,0,2.92,2.92h29.2a2.924,2.924,0,0,0,2.92-2.92V28.628l7.495-7.495.006,0s0,0,0-.006l2.681-2.681a5.1,5.1,0,0,0-3.609-8.71ZM9.734,4.867a.974.974,0,0,1,.973-.973h4.072a.976.976,0,0,0,.917-.648,1.93,1.93,0,0,1,3.648,0,.974.974,0,0,0,.917.648h4.072a.974.974,0,0,1,.973.973V5.84H9.734ZM33.094,43.8a.974.974,0,0,1-.973.973H2.92a.974.974,0,0,1-.973-.973V6.813A.974.974,0,0,1,2.92,5.84H7.787v.973a.974.974,0,0,0,.973.973H26.28a.974.974,0,0,0,.973-.973V5.84h4.867a.974.974,0,0,1,.973.973v9.331L27.7,21.536a.952.952,0,0,0-.448-.123h-14.6a.973.973,0,1,0,0,1.947H25.877l-5.84,5.84H12.654a.973.973,0,0,0,0,1.947h6.541l-1.46,5.84H12.654a.973.973,0,1,0,0,1.947h5.84a.882.882,0,0,0,.236-.031l7.787-1.947c.023-.006.039-.027.062-.035a.978.978,0,0,0,.329-.185c.018-.016.045-.018.062-.035l6.124-6.126V43.8ZM21.165,31.3a6.157,6.157,0,0,1,3.993,3.993l-5.326,1.333ZM26.8,34.12a8.048,8.048,0,0,0-4.462-4.462L36.014,15.979l4.462,4.462ZM43.849,17.067l-2,2L37.39,14.6l2-2a3.156,3.156,0,0,1,4.462,4.464Z" fill="#4669b2"/>
    </g>
  </g>
</svg>
