<svg xmlns="http://www.w3.org/2000/svg" xmlns:xlink="http://www.w3.org/1999/xlink" width="37.509" height="37.508" viewBox="0 0 37.509 37.508">
  <defs>
    <linearGradient id="linear-gradient" x1="0.927" y1="0.094" x2="0.072" y2="0.869" gradientUnits="objectBoundingBox">
      <stop offset="0" stop-color="#01b6eb"/>
      <stop offset="0.669" stop-color="#4e6be2"/>
      <stop offset="1" stop-color="#0c00ff"/>
    </linearGradient>
  </defs>
  <path id="Exclusion_14" data-name="Exclusion 14" d="M25.509,37.508H12a12,12,0,0,1-12-12V12A12,12,0,0,1,12,0H25.509a12,12,0,0,1,12,12V25.509a12,12,0,0,1-12,12ZM12.04,19.9a1.587,1.587,0,0,0-1.25,2.563l4.991,6.4a4.181,4.181,0,0,0,3.475,1.859h3.108a4.7,4.7,0,0,0,4.694-4.694v-7a1.586,1.586,0,0,0-2.937-.833v-.516a1.586,1.586,0,0,0-2.937-.833v-.357a1.586,1.586,0,0,0-2.937-.833v-4.8a1.587,1.587,0,1,0-3.174,0v11.94l-1.78-2.282A1.578,1.578,0,0,0,12.04,19.9Zm4.62-11.845a2.786,2.786,0,0,1,2.784,2.783,1.047,1.047,0,1,0,2.093,0,4.878,4.878,0,0,0-9.755,0,1.047,1.047,0,1,0,2.094,0A2.786,2.786,0,0,1,16.661,8.051Z" fill="url(#linear-gradient)"/>
</svg>
