<svg id="noun_menu" xmlns="http://www.w3.org/2000/svg" width="20.936" height="21.343" viewBox="0 0 20.936 21.343">
  <path id="Path_29480" data-name="Path 29480" d="M42.9,47.2a1.81,1.81,0,0,0,1.808,1.808h5.683A1.81,1.81,0,0,0,52.2,47.2V41.518a1.81,1.81,0,0,0-1.808-1.808H44.708A1.81,1.81,0,0,0,42.9,41.518Zm1.55-5.683a.258.258,0,0,1,.258-.258h5.683a.258.258,0,0,1,.258.258V47.2a.258.258,0,0,1-.258.258H44.708a.258.258,0,0,1-.258-.258Z" transform="translate(-42.9 -39.71)" fill="#999"/>
  <path id="Path_29481" data-name="Path 29481" d="M162.992,39.75h-5.683a1.81,1.81,0,0,0-1.808,1.808v5.683a1.81,1.81,0,0,0,1.808,1.808h5.683a1.81,1.81,0,0,0,1.808-1.808V41.558a1.81,1.81,0,0,0-1.808-1.808Zm.258,7.488a.258.258,0,0,1-.258.258h-5.683a.258.258,0,0,1-.258-.258V41.554a.258.258,0,0,1,.258-.258h5.683a.258.258,0,0,1,.258.258Z" transform="translate(-143.864 -39.746)" fill="#999"/>
  <path id="Path_29482" data-name="Path 29482" d="M42.9,163.742a1.81,1.81,0,0,0,1.808,1.808h5.683a1.81,1.81,0,0,0,1.808-1.808v-5.684a1.81,1.81,0,0,0-1.808-1.808H44.708a1.81,1.81,0,0,0-1.808,1.808Zm1.55-5.684a.258.258,0,0,1,.258-.258h5.683a.258.258,0,0,1,.258.258v5.684a.258.258,0,0,1-.258.258H44.708a.258.258,0,0,1-.258-.258Z" transform="translate(-42.9 -144.207)" fill="#999"/>
  <path id="Path_29483" data-name="Path 29483" d="M162.992,165.55a1.81,1.81,0,0,0,1.808-1.808v-5.684a1.81,1.81,0,0,0-1.808-1.808h-5.683a1.81,1.81,0,0,0-1.808,1.808v5.684a1.81,1.81,0,0,0,1.808,1.808Zm-5.938-1.808v-5.684a.258.258,0,0,1,.258-.258H163a.258.258,0,0,1,.258.258v5.684A.258.258,0,0,1,163,164h-5.688a.258.258,0,0,1-.254-.258Z" transform="translate(-143.864 -144.207)" fill="#999"/>
</svg>
