<svg xmlns="http://www.w3.org/2000/svg" xmlns:xlink="http://www.w3.org/1999/xlink" width="40.871" height="40.871" viewBox="0 0 40.871 40.871">
  <defs>
    <linearGradient id="linear-gradient" x1="0.5" y1="-0.031" x2="0.5" y2="1.052" gradientUnits="objectBoundingBox">
      <stop offset="0" stop-color="#01b6eb"/>
      <stop offset="1" stop-color="#0c00ff"/>
    </linearGradient>
  </defs>
  <path id="Exclusion_3" data-name="Exclusion 3" d="M20.435,40.871A20.435,20.435,0,0,1,5.985,5.985a20.435,20.435,0,1,1,28.9,28.9A20.3,20.3,0,0,1,20.435,40.871ZM11.224,9.04a1.267,1.267,0,0,0-1.266,1.265A21.548,21.548,0,0,0,31.481,31.83a1.268,1.268,0,0,0,1.266-1.266V26.132a1.267,1.267,0,0,0-1.266-1.265,14.4,14.4,0,0,1-4.52-.722,1.306,1.306,0,0,0-.393-.061,1.291,1.291,0,0,0-.9.364l-2.785,2.785A19.084,19.084,0,0,1,14.54,18.9l2.785-2.8a1.245,1.245,0,0,0,.317-1.279,14.4,14.4,0,0,1-.722-4.521A1.267,1.267,0,0,0,15.655,9.04Z" fill="url(#linear-gradient)"/>
</svg>
