<svg id="Group_97041" data-name="Group 97041" xmlns="http://www.w3.org/2000/svg" width="74.784" height="74.783" viewBox="0 0 74.784 74.783">
  <g id="Group_97036" data-name="Group 97036">
    <ellipse id="Ellipse_3" data-name="Ellipse 3" cx="31.804" cy="31.803" rx="31.804" ry="31.803" transform="translate(5.588 5.588)" fill="#4e6be2"/>
    <ellipse id="Ellipse_7471" data-name="Ellipse 7471" cx="37.392" cy="37.392" rx="37.392" ry="37.392" transform="translate(0)" fill="#4e6be2" opacity="0.6"/>
  </g>
  <g id="Group_97037" data-name="Group 97037" transform="translate(21.392 21.392)">
    <path id="Path_209312" data-name="Path 209312" d="M0,0H28V28H0Z" transform="translate(3 2)" fill="none"/>
    <g id="Group_97038" data-name="Group 97038">
      <path id="Path_209313" data-name="Path 209313" d="M0,0H32V32H0Z" fill="none"/>
      <path id="Path_209314" data-name="Path 209314" d="M12.2,14.1A15.248,15.248,0,0,0,17.9,19.8l1.277-1.788a1.444,1.444,0,0,1,1.869-.428,16.5,16.5,0,0,0,6.62,1.97A1.444,1.444,0,0,1,29,21v6.445a1.445,1.445,0,0,1-1.3,1.437A22.4,22.4,0,0,1,3.118,4.3,1.444,1.444,0,0,1,4.556,3H11a1.444,1.444,0,0,1,1.44,1.331,16.5,16.5,0,0,0,1.97,6.62,1.444,1.444,0,0,1-.428,1.869Zm-3.643-.949,2.744-1.96a19.37,19.37,0,0,1-1.585-5.3H5.9c-.009.24-.013.481-.013.722a19.5,19.5,0,0,0,19.5,19.5c.241,0,.482,0,.722-.014V22.288a19.37,19.37,0,0,1-5.3-1.585l-1.96,2.744a17.971,17.971,0,0,1-2.294-1.083l-.084-.048a18.136,18.136,0,0,1-6.792-6.792l-.048-.084a17.971,17.971,0,0,1-1.083-2.294Z" transform="translate(0 0)" fill="#f5f7f6"/>
    </g>
  </g>
</svg>
