<svg id="notes" xmlns="http://www.w3.org/2000/svg" width="45.232" height="45.232" viewBox="0 0 45.232 45.232">
  <g id="Group_15" data-name="Group 15" transform="translate(17.12 13.604)">
    <g id="Group_14" data-name="Group 14">
      <path id="Path_17" data-name="Path 17" d="M143.994,149.333H128.842a.842.842,0,0,0,0,1.684h15.152a.842.842,0,0,0,0-1.684Z" transform="translate(-128 -149.333)" fill="#4669b2"/>
    </g>
  </g>
  <g id="Group_17" data-name="Group 17" transform="translate(10.386 32.124)">
    <g id="Group_16" data-name="Group 16">
      <path id="Path_18" data-name="Path 18" d="M45.192,384a2.525,2.525,0,1,0,2.525,2.525A2.528,2.528,0,0,0,45.192,384Zm0,3.367a.842.842,0,1,1,.842-.842A.842.842,0,0,1,45.192,387.367Z" transform="translate(-42.667 -384)" fill="#4669b2"/>
    </g>
  </g>
  <g id="Group_19" data-name="Group 19" transform="translate(10.386 25.389)">
    <g id="Group_18" data-name="Group 18">
      <path id="Path_19" data-name="Path 19" d="M45.192,298.667a2.525,2.525,0,1,0,2.525,2.525A2.528,2.528,0,0,0,45.192,298.667Zm0,3.367a.842.842,0,1,1,.842-.842A.842.842,0,0,1,45.192,302.034Z" transform="translate(-42.667 -298.667)" fill="#4669b2"/>
    </g>
  </g>
  <g id="Group_21" data-name="Group 21" transform="translate(10.386 18.655)">
    <g id="Group_20" data-name="Group 20">
      <path id="Path_20" data-name="Path 20" d="M45.192,213.333a2.525,2.525,0,1,0,2.525,2.525A2.528,2.528,0,0,0,45.192,213.333Zm0,3.367a.842.842,0,1,1,.842-.842A.842.842,0,0,1,45.192,216.7Z" transform="translate(-42.667 -213.333)" fill="#4669b2"/>
    </g>
  </g>
  <g id="Group_23" data-name="Group 23" transform="translate(10.386 11.921)">
    <g id="Group_22" data-name="Group 22">
      <path id="Path_21" data-name="Path 21" d="M45.192,128a2.525,2.525,0,1,0,2.525,2.525A2.528,2.528,0,0,0,45.192,128Zm0,3.367a.842.842,0,1,1,.842-.842A.842.842,0,0,1,45.192,131.367Z" transform="translate(-42.667 -128)" fill="#4669b2"/>
    </g>
  </g>
  <g id="Group_64957" data-name="Group 64957" transform="translate(0 0)">
    <path id="Path_206071" data-name="Path 206071" d="M0,0H45.232V45.232H0Z" fill="none"/>
    <path id="Path_206072" data-name="Path 206072" d="M35.924,37.356V40.5H32.155V37.986l-13.98,2.329a.942.942,0,0,1-1.1-.929V36.729H9.539V40.5H5.769V36.729H3.885A1.885,1.885,0,0,1,2,34.844V6.574A1.885,1.885,0,0,1,3.885,4.689H17.077V2.032a.942.942,0,0,1,1.1-.929L38.118,4.428a1.885,1.885,0,0,1,1.576,1.858v4.058h1.885v3.769H39.693V27.305h1.885v3.769H39.693v4.058a1.885,1.885,0,0,1-1.576,1.858ZM5.769,8.459v24.5H17.077V8.459ZM20.847,36.05l15.077-2.514V7.882L20.847,5.37V36.048Zm8.481-10.629c-1.56,0-2.827-2.111-2.827-4.712S27.767,16,29.328,16s2.827,2.111,2.827,4.712S30.888,25.421,29.328,25.421Z" transform="translate(1.769 0.964)" fill="#4669b2"/>
  </g>
</svg>
