<svg xmlns="http://www.w3.org/2000/svg" width="53.084" height="43.195" viewBox="0 0 53.084 43.195">
  <g id="Group_97600" data-name="Group 97600" transform="translate(738.994 -284.24)">
    <g id="Path_209512" data-name="Path 209512" transform="translate(0)" fill="#4669b2">
      <path d="M -715.5018310546875 327.1414184570312 C -716.3102416992188 327.1414489746094 -717.0888671875 326.8460083007812 -718.00927734375 326.4023742675781 C -720.3822631835938 325.2589111328125 -722.8024291992188 324.1131896972656 -725.1429443359375 323.0051879882812 L -726.4760131835938 322.3739624023438 C -727.1911010742188 322.0352783203125 -727.9059448242188 321.6962890625 -728.6209106445312 321.3572998046875 C -731.5972290039062 319.9459838867188 -734.6748657226562 318.4866333007812 -737.7130737304688 317.0745849609375 C -738.4935302734375 316.7119750976562 -738.7965698242188 316.2459106445312 -738.7940673828125 315.4122314453125 C -738.770751953125 307.7222900390625 -738.7697143554688 300.5695190429688 -738.7908935546875 293.5452270507812 C -738.7959594726562 291.8975219726562 -738.5865478515625 291.8257141113281 -737.4244384765625 291.4270629882812 C -737.31787109375 291.3905029296875 -737.204345703125 291.3515625 -737.0834350585938 291.308837890625 C -734.6229858398438 290.4391479492188 -732.1022338867188 289.6061706542969 -729.6644897460938 288.8006286621094 C -729.0506591796875 288.5977783203125 -728.4368286132812 288.3949584960938 -727.8233032226562 288.1913452148438 C -726.2018432617188 287.6531372070312 -724.5509033203125 287.1123352050781 -722.9542846679688 286.5893249511719 C -721.7361450195312 286.1902770996094 -720.4765625 285.7776794433594 -719.2384643554688 285.3689575195312 L -718.9724731445312 285.2813720703125 C -718.313720703125 285.0647888183594 -717.632568359375 284.8408203125 -716.9783325195312 284.5728454589844 C -716.759765625 284.4833068847656 -716.5408935546875 284.4397888183594 -716.3092041015625 284.4397888183594 C -715.8428344726562 284.4397888183594 -715.4042358398438 284.6141357421875 -714.9398803710938 284.7987365722656 C -714.7437133789062 284.8767395019531 -714.5408935546875 284.9573974609375 -714.3377685546875 285.0225219726562 C -712.407958984375 285.6412963867188 -710.4577026367188 286.3104553222656 -708.5716552734375 286.9575805664062 C -707.5785522460938 287.2983703613281 -706.5516357421875 287.6506958007812 -705.5394897460938 287.9916687011719 C -703.3349609375 288.7343444824219 -701.0911254882812 289.482177734375 -698.9212036132812 290.2053833007812 C -697.9837036132812 290.5177917480469 -697.0462646484375 290.8302307128906 -696.1090087890625 291.1432189941406 C -695.9685668945312 291.1901245117188 -695.825439453125 291.2417907714844 -695.68701171875 291.2917175292969 C -695.3666381835938 291.4072875976562 -695.0354614257812 291.5267944335938 -694.6941528320312 291.6045837402344 C -694.1021118164062 291.7399597167969 -693.8860473632812 292.0661010742188 -693.8971557617188 292.8078308105469 C -693.9175415039062 294.1637878417969 -693.9127807617188 295.5419006347656 -693.9081420898438 296.8746337890625 C -693.9069213867188 297.2254333496094 -693.90576171875 297.5762023925781 -693.9049682617188 297.9269714355469 C -693.9034423828125 298.6560974121094 -694.0846557617188 298.904541015625 -694.6232299804688 298.91162109375 L -694.6401977539062 298.9117431640625 C -695.120361328125 298.9117431640625 -695.3015747070312 298.6670532226562 -695.332763671875 297.9767456054688 C -695.3587036132812 297.4006958007812 -695.3572998046875 296.811279296875 -695.35595703125 296.2412414550781 C -695.3550415039062 295.8658752441406 -695.3541259765625 295.4776916503906 -695.3609619140625 295.0951538085938 C -695.3648681640625 294.8744812011719 -695.3937377929688 294.6608581542969 -695.4271240234375 294.4134521484375 C -695.4436645507812 294.2908630371094 -695.4607543945312 294.1640625 -695.4765625 294.0239868164062 L -695.5065307617188 293.7583618164062 L -695.7528686523438 293.862060546875 C -696.1536254882812 294.0307006835938 -696.54345703125 294.1934204101562 -696.925537109375 294.3528442382812 C -697.7515869140625 294.6976013183594 -698.5319213867188 295.0232543945312 -699.3125 295.3630065917969 C -702.63330078125 296.8078002929688 -706.0075073242188 298.2813110351562 -709.2706298828125 299.7063293457031 C -710.3988037109375 300.1990051269531 -711.5269775390625 300.6916809082031 -712.6552734375 301.1841735839844 C -712.6778564453125 301.1940612792969 -712.7000122070312 301.2055053710938 -712.7219848632812 301.2171325683594 C -712.7393188476562 301.226318359375 -712.7631225585938 301.2388916015625 -712.7726440429688 301.2412109375 C -714.73095703125 301.7179870605469 -714.9684448242188 303.1228332519531 -714.9334106445312 304.5699157714844 C -714.8445434570312 308.2488708496094 -714.860595703125 311.9933471679688 -714.8761596679688 315.6145324707031 C -714.8822021484375 317.0228576660156 -714.8884887695312 318.4791259765625 -714.8884887695312 319.9114990234375 L -714.8884887695312 321.0587158203125 L -714.8884887695312 321.3808898925781 L -714.5997314453125 321.2379455566406 L -713.1625366210938 320.5264587402344 C -711.9017333984375 319.9022521972656 -710.7097778320312 319.3121337890625 -709.5174560546875 318.7226257324219 C -709.2426147460938 318.5867004394531 -708.9669799804688 318.4523620605469 -708.6912841796875 318.3180541992188 C -708.1364135742188 318.0476989746094 -707.5626831054688 317.7681274414062 -707.0042724609375 317.4788818359375 C -706.8515014648438 317.3997192382812 -706.7063598632812 317.3595886230469 -706.5729370117188 317.3595886230469 C -706.3168334960938 317.3595886230469 -706.0969848632812 317.5057678222656 -705.91943359375 317.7940368652344 C -705.8118896484375 317.9687805175781 -705.7782592773438 318.1492004394531 -705.8221435546875 318.3157653808594 C -705.8712158203125 318.5019226074219 -706.0153198242188 318.6689147949219 -706.2278442382812 318.7859802246094 C -707.3920288085938 319.4274291992188 -708.5801391601562 320.0271606445312 -709.79638671875 320.6360778808594 C -710.8470458984375 321.1620788574219 -711.0120849609375 321.6572875976562 -710.5641479492188 322.93994140625 L -710.4888916015625 323.1553039550781 L -710.2852172851562 323.0525512695312 L -709.4940795898438 322.6535034179688 C -708.3995361328125 322.1014709472656 -707.337158203125 321.5656127929688 -706.2753295898438 321.0289001464844 C -706.2277221679688 321.0049438476562 -706.1845703125 320.9765930175781 -706.146484375 320.9515686035156 C -706.1007080078125 320.9215393066406 -706.0575561523438 320.8931884765625 -706.0244140625 320.8840026855469 C -705.96435546875 320.8673706054688 -705.9041137695312 320.8497009277344 -705.8435668945312 320.8320007324219 C -705.60205078125 320.7612609863281 -705.352294921875 320.6881103515625 -705.1321411132812 320.6881103515625 C -704.8700561523438 320.6881103515625 -704.6795654296875 320.7912902832031 -704.5144653320312 321.0226745605469 C -704.4027709960938 321.1793823242188 -704.3665161132812 321.3303527832031 -704.40380859375 321.4840698242188 C -704.4677734375 321.7475891113281 -704.7566528320312 322.0233154296875 -705.21728515625 322.2605285644531 C -706.1548461914062 322.7432861328125 -707.1226196289062 323.2117309570312 -708.0585327148438 323.6647338867188 C -709.8955688476562 324.5539245605469 -711.7951049804688 325.473388671875 -713.5652465820312 326.5486145019531 C -714.2217407226562 326.9474792480469 -714.855224609375 327.1413879394531 -715.5018310546875 327.1414184570312 Z M -712.6539306640625 322.2447204589844 L -712.8672485351562 322.3139953613281 C -713.8719482421875 322.6403198242188 -714.5491943359375 322.8912963867188 -714.7988891601562 323.3865661621094 C -715.0005493164062 323.7864379882812 -714.9002685546875 324.2917785644531 -714.6876831054688 324.9275512695312 L -714.621826171875 325.12451171875 L -714.4274291992188 325.0513000488281 C -712.5162353515625 324.3310546875 -712.2953491210938 324.0167541503906 -712.6094360351562 322.4645385742188 L -712.6539306640625 322.2447204589844 Z M -717.9775390625 322.5061340332031 C -718.22802734375 322.5061340332031 -718.5983276367188 322.8126525878906 -718.6605834960938 323.0716247558594 C -718.7645874023438 323.5047912597656 -718.6965942382812 323.8978576660156 -718.4639892578125 324.2083740234375 C -718.1578369140625 324.6172180175781 -717.60009765625 324.8529052734375 -716.85107421875 324.8900146484375 L -716.6994018554688 324.8975524902344 L -716.6514282226562 324.75341796875 C -716.426025390625 324.0760803222656 -716.4286499023438 323.5635681152344 -716.6593627929688 323.1866455078125 C -716.8792114257812 322.8275756835938 -717.2939453125 322.6061706542969 -717.9273681640625 322.5098571777344 C -717.943603515625 322.5073852539062 -717.9605102539062 322.5061340332031 -717.9775390625 322.5061340332031 Z M -733.322021484375 315.3279113769531 C -733.4617309570312 315.3279113769531 -733.5782470703125 315.3743896484375 -733.6683959960938 315.4660034179688 C -733.8372192382812 315.6376037597656 -733.89892578125 315.9508972167969 -733.8886108398438 316.5834045410156 L -733.8883666992188 316.5994262695312 L -733.8855590820312 316.6151733398438 C -733.8256225585938 316.9517517089844 -733.3490600585938 317.3296203613281 -733.076904296875 317.4998474121094 C -732.7361450195312 317.7127075195312 -732.3612670898438 317.8668518066406 -731.998779296875 318.0158996582031 C -731.8048095703125 318.0956726074219 -731.6041870117188 318.1781311035156 -731.4146118164062 318.2676086425781 C -730.4527587890625 318.7212524414062 -729.4913940429688 319.1759643554688 -728.5300903320312 319.6306457519531 C -726.2591552734375 320.7047119140625 -723.9109497070312 321.8153381347656 -721.5945434570312 322.8937072753906 C -721.44580078125 322.9628295898438 -721.251953125 323.0024719238281 -721.0625 323.0024719238281 C -720.9266357421875 323.0024719238281 -720.7318115234375 322.9820861816406 -720.5753784179688 322.8849792480469 C -720.3164672851562 322.7245483398438 -720.262939453125 322.1659851074219 -720.3665771484375 321.9002380371094 C -720.4846801757812 321.5972595214844 -720.7352905273438 321.206787109375 -721.0844116210938 321.0196838378906 C -722.0549926757812 320.499267578125 -723.0675048828125 320.0235595703125 -724.0466918945312 319.5635070800781 L -724.2678833007812 319.4595642089844 C -726.8065185546875 318.2657165527344 -729.8001708984375 316.86083984375 -732.7548217773438 315.4927978515625 C -733.0011596679688 315.3787536621094 -733.1760864257812 315.3279113769531 -733.322021484375 315.3279113769531 Z M -737.0721435546875 293.6783447265625 L -737.09765625 293.9450073242188 C -737.1117553710938 294.0924072265625 -737.126220703125 294.2179870605469 -737.1390380859375 294.3287658691406 C -737.162841796875 294.534912109375 -737.1815795898438 294.6977233886719 -737.1818237304688 294.863525390625 C -737.1829833984375 296.5299682617188 -737.1829223632812 298.1963195800781 -737.1828002929688 299.8626403808594 C -737.1825561523438 303.4164733886719 -737.1823120117188 307.09130859375 -737.1953735351562 310.7052612304688 C -737.1983032226562 311.5270385742188 -736.7326049804688 311.8565368652344 -736.2766723632812 312.0704956054688 C -733.125244140625 313.5497131347656 -729.9238891601562 315.0602722167969 -726.8279418945312 316.5210876464844 C -724.6557006835938 317.5460815429688 -722.4094848632812 318.60595703125 -720.1991577148438 319.6462097167969 C -719.4646606445312 319.9918518066406 -718.7306518554688 320.3189697265625 -717.9535522460938 320.6652526855469 C -717.5928955078125 320.8259887695312 -717.2257080078125 320.9895935058594 -716.8496704101562 321.1590576171875 L -716.5965576171875 321.2731018066406 L -716.5685424804688 320.9969177246094 C -716.5553588867188 320.8670959472656 -716.5410766601562 320.7518005371094 -716.5285034179688 320.6500854492188 C -716.5033569335938 320.4470520019531 -716.4835205078125 320.2866821289062 -716.4833984375 320.1181030273438 C -716.4822998046875 318.43212890625 -716.4825439453125 316.7461853027344 -716.4827880859375 315.0602416992188 C -716.4833984375 311.1471862792969 -716.4840698242188 307.1008911132812 -716.4663696289062 303.1215515136719 C -716.4631958007812 302.4181518554688 -716.766357421875 301.9789123535156 -717.4492797851562 301.6973571777344 C -718.3399047851562 301.3301696777344 -719.246826171875 300.9608459472656 -720.1239624023438 300.6037292480469 C -720.8047485351562 300.3264770507812 -721.4856567382812 300.0492553710938 -722.165771484375 299.770263671875 C -723.6777954101562 299.1499633789062 -725.1895141601562 298.5288391113281 -726.7011108398438 297.90771484375 C -728.7032470703125 297.0850524902344 -730.7735595703125 296.234375 -732.8106689453125 295.3997802734375 C -733.6895141601562 295.0396728515625 -734.5691528320312 294.6859436035156 -735.5003662109375 294.3114318847656 C -735.9295043945312 294.1388244628906 -736.369140625 293.9620666503906 -736.82373046875 293.7785949707031 L -737.0721435546875 293.6783447265625 Z M -737.0320434570312 313.7036743164062 L -737.0896606445312 313.8374328613281 C -737.333740234375 314.4040222167969 -737.462890625 314.8561096191406 -737.2997436523438 315.2207336425781 C -737.1171875 315.6286315917969 -736.5980834960938 315.8296508789062 -735.9384765625 316.0501098632812 L -735.7553100585938 316.1112976074219 L -735.687744140625 315.930419921875 C -735.4215698242188 315.2181701660156 -735.4060668945312 314.6898803710938 -735.6404418945312 314.3153991699219 C -735.8551635742188 313.9723510742188 -736.262939453125 313.7767944335938 -736.8870849609375 313.7174682617188 L -737.0320434570312 313.7036743164062 Z M -706.4381103515625 289.3670959472656 C -706.6281127929688 289.3670959472656 -706.8238525390625 289.4031372070312 -706.9893188476562 289.4685668945312 C -707.9166259765625 289.8346252441406 -708.8533325195312 290.2207946777344 -709.7592163085938 290.59423828125 C -710.3731689453125 290.8473815917969 -711.008056640625 291.109130859375 -711.6339721679688 291.3620910644531 C -713.399169921875 292.0754699707031 -715.1952514648438 292.7977600097656 -716.9322509765625 293.4962463378906 C -718.4216918945312 294.09521484375 -719.9111328125 294.6941833496094 -721.3998413085938 295.2949523925781 C -722.092529296875 295.5744934082031 -722.797119140625 295.8665161132812 -723.5430297851562 296.1756896972656 C -723.9115600585938 296.3284606933594 -724.2969360351562 296.4881896972656 -724.7075805664062 296.6575317382812 L -725.1581420898438 296.8433227539062 L -724.7069702148438 297.027587890625 C -723.9352416992188 297.3427429199219 -723.1773071289062 297.6353149414062 -722.4443969726562 297.918212890625 C -720.7811889648438 298.5602111816406 -719.210205078125 299.1666259765625 -717.7276000976562 299.9373474121094 C -717.0501098632812 300.2894897460938 -716.4041748046875 300.4606628417969 -715.7530517578125 300.460693359375 C -715.7529907226562 300.460693359375 -715.7529296875 300.460693359375 -715.7528686523438 300.460693359375 C -715.0386962890625 300.460693359375 -714.303466796875 300.2589416503906 -713.3690185546875 299.8065490722656 C -711.7035522460938 299.0004272460938 -709.9705200195312 298.2576599121094 -708.2945556640625 297.5393676757812 C -707.6703491210938 297.2718505859375 -707.02490234375 296.9952087402344 -706.3917236328125 296.7190551757812 C -705.61376953125 296.3797607421875 -704.8202514648438 296.0395812988281 -704.0529174804688 295.7106323242188 C -703.3348388671875 295.40283203125 -702.5923461914062 295.0845336914062 -701.8634643554688 294.7673034667969 C -700.9232788085938 294.3581848144531 -699.9874877929688 293.9442749023438 -698.9967041015625 293.5060729980469 C -698.5360107421875 293.3023071289062 -698.0640258789062 293.0935668945312 -697.575439453125 292.8781127929688 L -697.2725219726562 292.7445678710938 L -697.5316772460938 292.53857421875 C -697.6300048828125 292.4603881835938 -697.705078125 292.3936157226562 -697.7713012695312 292.334716796875 C -697.8971557617188 292.2227172851562 -697.9880981445312 292.1418151855469 -698.1132202148438 292.0989990234375 C -700.5084838867188 291.2816467285156 -703.2949829101562 290.33349609375 -706.0563354492188 289.423583984375 C -706.1700439453125 289.3861083984375 -706.2985229492188 289.3670959472656 -706.4381103515625 289.3670959472656 Z M -716.3050537109375 286.1835021972656 C -716.501953125 286.1835021972656 -716.6829223632812 286.209228515625 -716.8429565429688 286.2599792480469 C -719.7081909179688 287.1680603027344 -722.5123291015625 288.0958862304688 -725.1157836914062 288.9632263183594 C -727.6507568359375 289.8076171875 -730.2222900390625 290.6827697753906 -732.7091064453125 291.5291137695312 L -733.0447998046875 291.6433410644531 C -733.4146728515625 291.7691345214844 -733.7804565429688 291.9086608886719 -734.2039794921875 292.0702209472656 C -734.4175415039062 292.1516723632812 -734.6468505859375 292.2391357421875 -734.900390625 292.3339233398438 L -735.2813110351562 292.476318359375 L -734.93603515625 292.6911010742188 C -734.7996826171875 292.7759094238281 -734.7020263671875 292.8397216796875 -734.6235961914062 292.8909912109375 C -734.4959106445312 292.9744567871094 -734.4188842773438 293.0248107910156 -734.3294677734375 293.0622863769531 C -733.8572998046875 293.2600708007812 -733.3856201171875 293.4589233398438 -732.9139404296875 293.6577453613281 C -731.31591796875 294.3314208984375 -729.6634521484375 295.0280456542969 -728.0198364257812 295.6701965332031 C -727.8173217773438 295.7493591308594 -727.5721435546875 295.7911987304688 -727.3108520507812 295.7911987304688 C -727.3108520507812 295.7911987304688 -727.310791015625 295.7911987304688 -727.3107299804688 295.7911987304688 C -727.0377807617188 295.7911987304688 -726.75927734375 295.7447814941406 -726.5264282226562 295.6604614257812 C -725.2827758789062 295.210205078125 -724.0391845703125 294.7012939453125 -722.83642578125 294.2091064453125 C -722.5361938476562 294.0862426757812 -722.2359619140625 293.96337890625 -721.9354248046875 293.8412780761719 C -719.2567749023438 292.7527160644531 -716.4451904296875 291.6056518554688 -713.340087890625 290.3345336914062 C -712.541748046875 290.0077819824219 -711.7393188476562 289.6728515625 -710.8897705078125 289.3182983398438 C -710.4840698242188 289.1489868164062 -710.064697265625 288.9739685058594 -709.6249389648438 288.7910766601562 L -709.2428588867188 288.6322021484375 L -709.604736328125 288.4315185546875 C -709.7406616210938 288.3561401367188 -709.8475952148438 288.2922058105469 -709.94189453125 288.23583984375 C -710.11181640625 288.1342468261719 -710.234619140625 288.0608520507812 -710.3754272460938 288.0134887695312 L -710.9171752929688 287.8307495117188 C -712.44580078125 287.3150024414062 -714.0264892578125 286.7817077636719 -715.5933227539062 286.2920837402344 C -715.820556640625 286.2210693359375 -716.0667114257812 286.1835021972656 -716.3050537109375 286.1835021972656 Z" stroke="none"/>
      <path d="M -715.5018310546875 326.94140625 C -714.8928833007812 326.9413757324219 -714.2933959960938 326.7569885253906 -713.6690673828125 326.377685546875 C -711.8908081054688 325.2975158691406 -709.9868774414062 324.3759460449219 -708.1456909179688 323.4847106933594 C -707.2108154296875 323.0322265625 -706.2442016601562 322.5643310546875 -705.308837890625 322.0827026367188 C -704.906494140625 321.8755493164062 -704.6474609375 321.6401672363281 -704.5982055664062 321.4369201660156 C -704.5836181640625 321.3769836425781 -704.5760498046875 321.2808532714844 -704.6773071289062 321.1388549804688 C -704.8345336914062 320.9184875488281 -704.9888305664062 320.8881225585938 -705.1321411132812 320.8881225585938 C -705.3235473632812 320.8881225585938 -705.548828125 320.9540710449219 -705.787353515625 321.02392578125 C -705.8473510742188 321.04150390625 -705.9071044921875 321.0589599609375 -705.9667358398438 321.0755615234375 C -705.9808349609375 321.0820617675781 -706.012939453125 321.1031799316406 -706.0366821289062 321.1187438964844 C -706.0771484375 321.1453247070312 -706.1275634765625 321.1784057617188 -706.1851196289062 321.2073974609375 C -707.2470092773438 321.744140625 -708.3094482421875 322.2799987792969 -709.4039916992188 322.8320922851562 L -710.6024780273438 323.4366149902344 L -710.7529296875 323.0058898925781 C -711.2346801757812 321.6265258789062 -711.0321044921875 321.0310363769531 -709.8859252929688 320.4572448730469 C -708.6715087890625 319.8492431640625 -707.4853515625 319.2505187988281 -706.3243408203125 318.6107788085938 C -706.1602172851562 318.5203857421875 -706.050537109375 318.3974914550781 -706.0155639648438 318.2647705078125 C -705.9854736328125 318.1507873535156 -706.010498046875 318.0276794433594 -706.0897216796875 317.8988952636719 C -706.2283935546875 317.6737365722656 -706.3909912109375 317.5596008300781 -706.5729370117188 317.5596008300781 C -706.6740112304688 317.5596008300781 -706.7882080078125 317.5921630859375 -706.9122924804688 317.6564636230469 C -707.472900390625 317.9468383789062 -708.0477294921875 318.2269592285156 -708.6036987304688 318.4978332519531 C -708.8789672851562 318.6319885253906 -709.154296875 318.7661437988281 -709.4287719726562 318.9019165039062 C -710.62109375 319.4913940429688 -711.8130493164062 320.0815124511719 -713.0737915039062 320.7056884765625 L -715.0885009765625 321.7030334472656 L -715.0885009765625 319.9114990234375 C -715.0885009765625 318.4786987304688 -715.0822143554688 317.022216796875 -715.076171875 315.6136779785156 C -715.0606079101562 311.9938659667969 -715.0444946289062 308.2508239746094 -715.1333618164062 304.5747680664062 C -715.1703491210938 303.0475769042969 -714.9171752929688 301.5641174316406 -712.8346557617188 301.0504760742188 C -712.8281860351562 301.0472717285156 -712.8218383789062 301.043701171875 -712.8154296875 301.0403137207031 C -712.7890625 301.0263671875 -712.762451171875 301.0127563476562 -712.7352905273438 301.0008544921875 C -711.6069946289062 300.5083618164062 -710.4788818359375 300.0157165527344 -709.3506469726562 299.5230407714844 C -706.0875244140625 298.0979919433594 -702.7131958007812 296.6244506835938 -699.392333984375 295.1796264648438 C -698.6103515625 294.8392639160156 -697.829345703125 294.5133361816406 -697.0025634765625 294.1682739257812 C -696.6206665039062 294.0089111328125 -696.2310180664062 293.8462829589844 -695.8304443359375 293.6777038574219 L -695.3377075195312 293.4703369140625 L -695.27783203125 294.0015563964844 C -695.2622680664062 294.1394958496094 -695.2453002929688 294.2651672363281 -695.2288818359375 294.38671875 C -695.1947021484375 294.6402893066406 -695.1651000976562 294.8592834472656 -695.1609497070312 295.0915832519531 C -695.1541137695312 295.4761657714844 -695.155029296875 295.8653564453125 -695.1559448242188 296.2417297363281 C -695.1572875976562 296.8094177246094 -695.15869140625 297.3964233398438 -695.1329345703125 297.9677429199219 C -695.1016235351562 298.6616516113281 -694.9259033203125 298.7117309570312 -694.6401977539062 298.7117309570312 L -694.6258544921875 298.7116394042969 C -694.2625732421875 298.7068786621094 -694.1034545898438 298.6312561035156 -694.10498046875 297.9274291992188 C -694.105712890625 297.5767211914062 -694.10693359375 297.2260437011719 -694.108154296875 296.8753356933594 C -694.11279296875 295.5416870117188 -694.1175537109375 294.1626586914062 -694.09716796875 292.8048400878906 C -694.0874633789062 292.1571044921875 -694.2433471679688 291.9128112792969 -694.7385864257812 291.7995910644531 C -695.091796875 291.7190551757812 -695.4288940429688 291.5974426269531 -695.7548828125 291.4798583984375 C -695.8922119140625 291.4302978515625 -696.0341796875 291.3790893554688 -696.17236328125 291.3329467773438 C -697.1095581054688 291.0199584960938 -698.0469970703125 290.7075500488281 -698.9844360351562 290.3951110839844 C -701.1544799804688 289.671875 -703.3984985351562 288.9239807128906 -705.6033325195312 288.1811828613281 C -706.6160278320312 287.8400573730469 -707.6431884765625 287.4876098632812 -708.6365356445312 287.1467895507812 C -710.5216674804688 286.4999694824219 -712.470947265625 285.8311462402344 -714.3988037109375 285.2129516601562 C -714.6083984375 285.145751953125 -714.8145141601562 285.0638122558594 -715.0137939453125 284.9845886230469 C -715.4598388671875 284.8072814941406 -715.881103515625 284.6398010253906 -716.3092041015625 284.6398010253906 C -716.514404296875 284.6398010253906 -716.7084350585938 284.6784362792969 -716.9025268554688 284.7579040527344 C -717.5633544921875 285.0285949707031 -718.2479248046875 285.2536926269531 -718.9099731445312 285.4713745117188 L -719.17578125 285.5588989257812 C -720.4140625 285.9676513671875 -721.6737670898438 286.3803100585938 -722.8920288085938 286.7793884277344 C -724.4884643554688 287.3023376464844 -726.1392211914062 287.8430786132812 -727.7603149414062 288.3811645507812 C -728.3739624023438 288.5848083496094 -728.9878540039062 288.7876586914062 -729.6017456054688 288.9905395507812 C -732.0385131835938 289.7957458496094 -734.5582885742188 290.62841796875 -737.0167846679688 291.4974060058594 C -737.1383056640625 291.5403442382812 -737.25244140625 291.5794982910156 -737.3595581054688 291.6162414550781 C -737.8949584960938 291.7998962402344 -738.2181396484375 291.9107666015625 -738.370849609375 292.1142578125 C -738.5296020507812 292.3257446289062 -738.5933837890625 292.7401428222656 -738.5908813476562 293.5446166992188 C -738.5697631835938 300.5693359375 -738.5707397460938 307.7224731445312 -738.5940551757812 315.412841796875 C -738.5963745117188 316.1640014648438 -738.334716796875 316.5652160644531 -737.6287841796875 316.8932189941406 C -734.5899047851562 318.3056030273438 -731.5119018554688 319.7651062011719 -728.5352172851562 321.1765747070312 C -727.8203125 321.5155639648438 -727.1054077148438 321.8545532226562 -726.390380859375 322.1932373046875 L -725.057373046875 322.8244018554688 C -722.716552734375 323.9325561523438 -720.2960205078125 325.0784606933594 -717.9224853515625 326.2222290039062 C -717.0267333984375 326.6539306640625 -716.2723388671875 326.9414672851562 -715.5018310546875 326.94140625 M -712.5023803710938 321.9851989746094 L -712.4134521484375 322.4248962402344 C -712.0606079101562 324.1686096191406 -712.4946899414062 324.5366516113281 -714.35693359375 325.2384338378906 L -714.74560546875 325.3849182128906 L -714.8773193359375 324.9909973144531 C -715.1057739257812 324.3077697753906 -715.2102661132812 323.7581481933594 -714.9774780273438 323.2965393066406 C -714.69287109375 322.7319946289062 -713.9816284179688 322.4656677246094 -712.9290771484375 322.123779296875 L -712.5023803710938 321.9851989746094 M -717.9775390625 322.3061218261719 C -717.9506225585938 322.3061218261719 -717.9237060546875 322.3081359863281 -717.8973388671875 322.3121337890625 C -717.2020263671875 322.4178771972656 -716.7413330078125 322.6697692871094 -716.48876953125 323.0822448730469 C -716.2254028320312 323.5125122070312 -716.2164916992188 324.079833984375 -716.461669921875 324.8165588378906 L -716.5575561523438 325.1048278808594 L -716.8609619140625 325.0897827148438 C -717.67138671875 325.0496215820312 -718.2810668945312 324.7863159179688 -718.6240844726562 324.3282775878906 C -718.8935546875 323.9685363769531 -718.973388671875 323.5178833007812 -718.8550415039062 323.0248413085938 C -718.7710571289062 322.6755676269531 -718.3199462890625 322.3061218261719 -717.9775390625 322.3061218261719 M -733.322021484375 315.1279296875 C -733.1431884765625 315.1279296875 -732.9484252929688 315.1827697753906 -732.6707763671875 315.3113098144531 C -729.7156372070312 316.6795654296875 -726.7216796875 318.0845947265625 -724.1827392578125 319.278564453125 L -723.961669921875 319.3825073242188 C -722.9801025390625 319.8436584472656 -721.9651489257812 320.3204956054688 -720.9899291992188 320.8434143066406 C -720.5928344726562 321.0562133789062 -720.3113403320312 321.4913940429688 -720.1802368164062 321.8275756835938 C -720.0477294921875 322.1673889160156 -720.1110229492188 322.8325500488281 -720.4699096679688 323.054931640625 C -720.6663818359375 323.1768798828125 -720.900634765625 323.2024536132812 -721.0625 323.2024536132812 C -721.2832641601562 323.2024536132812 -721.5020751953125 323.1572265625 -721.678955078125 323.0750122070312 C -723.9959106445312 321.9963989257812 -726.3444213867188 320.8856506347656 -728.6156005859375 319.8114318847656 C -729.5768432617188 319.3567810058594 -730.5381469726562 318.9021301269531 -731.4999389648438 318.448486328125 C -731.6849365234375 318.3612060546875 -731.8743286132812 318.2833251953125 -732.0748291015625 318.2008972167969 C -732.4450073242188 318.0486755371094 -732.8277587890625 317.8912658691406 -733.1829833984375 317.6694030761719 C -733.3179321289062 317.5849914550781 -733.9954223632812 317.1392517089844 -734.0824584960938 316.6502380371094 L -734.0880737304688 316.6186828613281 L -734.088623046875 316.586669921875 C -734.0983276367188 315.9923095703125 -734.0552368164062 315.5740356445312 -733.8109741210938 315.3257446289062 C -733.72216796875 315.2355041503906 -733.5652465820312 315.1279296875 -733.322021484375 315.1279296875 M -737.2456665039062 293.3926086425781 L -736.7488403320312 293.5931396484375 C -736.2943115234375 293.7765808105469 -735.8548583984375 293.9533081054688 -735.42578125 294.1258544921875 C -734.4942016601562 294.50048828125 -733.6143188476562 294.8543701171875 -732.7348022460938 295.2146911621094 C -730.6976318359375 296.0493469238281 -728.6273193359375 296.9000244140625 -726.6251220703125 297.7227172851562 C -725.113525390625 298.3438110351562 -723.6018676757812 298.9649353027344 -722.0899047851562 299.585205078125 C -721.409912109375 299.8641357421875 -720.7291870117188 300.1413269042969 -720.0485229492188 300.4184875488281 C -719.1712036132812 300.7756958007812 -718.2640380859375 301.1450805664062 -717.373046875 301.512451171875 C -716.895751953125 301.7092590332031 -716.2617797851562 302.0902404785156 -716.266357421875 303.1224365234375 C -716.2840576171875 307.101318359375 -716.2833862304688 311.1473693847656 -716.2828369140625 315.0602111816406 C -716.2825317382812 316.7462158203125 -716.2822875976562 318.4322204589844 -716.2833862304688 320.1182556152344 C -716.2835693359375 320.299072265625 -716.3051147460938 320.4731140136719 -716.3300170898438 320.6746215820312 C -716.3424682617188 320.7753601074219 -716.3565673828125 320.8894958496094 -716.3695678710938 321.0171203613281 L -716.4256591796875 321.5695190429688 L -716.931884765625 321.3414001464844 C -717.3076171875 321.1720581054688 -717.674560546875 321.008544921875 -718.0349731445312 320.8479309082031 C -718.8130493164062 320.501220703125 -719.5479736328125 320.1737060546875 -720.2843627929688 319.8271789550781 C -722.4947509765625 318.786865234375 -724.7410278320312 317.7269897460938 -726.913330078125 316.7019653320312 C -730.0091552734375 315.2412109375 -733.2103881835938 313.7306823730469 -736.3616333007812 312.2515563964844 C -736.8446655273438 312.0248718261719 -737.3987426757812 311.6441955566406 -737.3953857421875 310.7045593261719 C -737.38232421875 307.0909423828125 -737.382568359375 303.4162902832031 -737.3828125 299.8626403808594 C -737.3829345703125 298.1962585449219 -737.3829956054688 296.5298767089844 -737.3818359375 294.86328125 C -737.381591796875 294.6860961914062 -737.3622436523438 294.5182800292969 -737.3377075195312 294.3058471679688 C -737.3250122070312 294.1959533691406 -737.3106689453125 294.0714111328125 -737.2967529296875 293.9259338378906 L -737.2456665039062 293.3926086425781 M -737.1581420898438 313.4907836914062 L -736.8681640625 313.5183410644531 C -736.1778564453125 313.5839538574219 -735.7208251953125 313.8099670410156 -735.470947265625 314.2092895507812 C -735.2013549804688 314.6400756835938 -735.2109375 315.2259521484375 -735.5003662109375 316.0004272460938 L -735.6355590820312 316.3621826171875 L -736.0018310546875 316.2398071289062 C -736.7086791992188 316.0036010742188 -737.2665405273438 315.7845764160156 -737.4822998046875 315.3024291992188 C -737.6752319335938 314.8712768554688 -737.538330078125 314.3733215332031 -737.2733764648438 313.75830078125 L -737.1581420898438 313.4907836914062 M -706.4381103515625 289.1671142578125 C -706.2772216796875 289.1671142578125 -706.1277465820312 289.1894836425781 -705.9937744140625 289.2336120605469 C -703.2314453125 290.1438598632812 -700.4443359375 291.0921936035156 -698.0485229492188 291.9097595214844 C -697.88525390625 291.9656066894531 -697.7708129882812 292.0674133300781 -697.6383056640625 292.1852722167969 C -697.5740966796875 292.2424621582031 -697.501220703125 292.3072509765625 -697.4072265625 292.3820190429688 L -696.888916015625 292.7940063476562 L -697.4947509765625 293.0611267089844 C -697.9832763671875 293.2765502929688 -698.4551391601562 293.4852294921875 -698.9158325195312 293.6889953613281 C -699.9068603515625 294.1273193359375 -700.8428955078125 294.5413513183594 -701.78369140625 294.95068359375 C -702.5130615234375 295.2681274414062 -703.2557983398438 295.5865478515625 -703.97412109375 295.8944702148438 C -704.7412109375 296.2232971191406 -705.5343627929688 296.5633239746094 -706.311767578125 296.9023742675781 C -706.945556640625 297.1787719726562 -707.59130859375 297.4555358886719 -708.2157592773438 297.7231750488281 C -709.8897094726562 298.4406127929688 -711.6205444335938 299.1824340820312 -713.2818603515625 299.9865417480469 C -714.244873046875 300.4527893066406 -715.0069580078125 300.6607055664062 -715.7528686523438 300.6607055664062 C -715.7529296875 300.6607055664062 -715.7529907226562 300.6607055664062 -715.7530517578125 300.6607055664062 C -716.4370727539062 300.6606750488281 -717.1131591796875 300.4821166992188 -717.8198852539062 300.1148071289062 C -719.2926025390625 299.3491821289062 -720.8585205078125 298.7447509765625 -722.5164184570312 298.1047973632812 C -723.250244140625 297.821533203125 -724.0090942382812 297.5286254882812 -724.7825927734375 297.2127380371094 L -725.6849365234375 296.84423828125 L -724.7838745117188 296.47265625 C -724.373291015625 296.3033447265625 -723.988037109375 296.1436462402344 -723.6195678710938 295.9909362792969 C -722.8732299804688 295.6815795898438 -722.1682739257812 295.3893737792969 -721.4747314453125 295.1094970703125 C -719.9859008789062 294.5086975097656 -718.4963989257812 293.9096984863281 -717.0068969726562 293.3106994628906 C -715.2699584960938 292.6122436523438 -713.4739379882812 291.8899841308594 -711.7089233398438 291.1766662597656 C -711.0836791992188 290.9239501953125 -710.4490966796875 290.662353515625 -709.83544921875 290.4093322753906 C -708.9288940429688 290.0356140136719 -707.991455078125 289.6491394042969 -707.0628662109375 289.2825622558594 C -706.8745727539062 289.2080993652344 -706.6526489257812 289.1671142578125 -706.4381103515625 289.1671142578125 M -716.3050537109375 285.9835205078125 C -716.0467529296875 285.9835205078125 -715.7799682617188 286.0242004394531 -715.5336303710938 286.1011962890625 C -713.9646606445312 286.5914611816406 -712.3829345703125 287.1251220703125 -710.853271484375 287.6412353515625 L -710.3116455078125 287.8239135742188 C -710.1504516601562 287.8781433105469 -710.0131225585938 287.9602355957031 -709.8392944335938 288.0641479492188 C -709.7462768554688 288.1197509765625 -709.6408081054688 288.1828002929688 -709.5077514648438 288.2566223144531 L -708.7839965820312 288.6580200195312 L -709.5481567382812 288.9757690429688 C -709.9878540039062 289.1585998535156 -710.4071044921875 289.3335876464844 -710.8126831054688 289.5028686523438 C -711.66259765625 289.8575744628906 -712.4653930664062 290.192626953125 -713.2642822265625 290.5196228027344 C -716.3695678710938 291.7908020019531 -719.1813354492188 292.9379272460938 -721.8601684570312 294.0265502929688 C -722.1605224609375 294.1485900878906 -722.4606323242188 294.2713928222656 -722.7606811523438 294.3941955566406 C -723.9652709960938 294.8871459960938 -725.2108154296875 295.3968811035156 -726.4583129882812 295.8485107421875 C -726.71240234375 295.9405212402344 -727.01513671875 295.9912109375 -727.3108520507812 295.9912109375 C -727.5968017578125 295.9912109375 -727.8671264648438 295.9446105957031 -728.0926513671875 295.8564758300781 C -729.7387084960938 295.2133483886719 -731.3923950195312 294.5162353515625 -732.9916381835938 293.842041015625 C -733.4631958007812 293.6432800292969 -733.9347534179688 293.4444885253906 -734.4067993164062 293.2467346191406 C -734.5130004882812 293.2022094726562 -734.6005249023438 293.14501953125 -734.7329711914062 293.0584106445312 C -734.8106079101562 293.0076904296875 -734.9072265625 292.9445495605469 -735.0416870117188 292.8609313964844 L -735.7322387695312 292.4313354492188 L -734.970458984375 292.1466064453125 C -734.71728515625 292.0519714355469 -734.4884033203125 291.9646606445312 -734.2752685546875 291.8833618164062 C -733.8499145507812 291.7210998535156 -733.4825439453125 291.5809326171875 -733.1091918945312 291.4540100097656 L -732.7735595703125 291.3397827148438 C -730.2864379882812 290.4933471679688 -727.714599609375 289.6180725097656 -725.178955078125 288.7734985351562 C -722.5748291015625 287.9058837890625 -719.7698364257812 286.9778137207031 -716.9033813476562 286.0693359375 C -716.7237548828125 286.0123901367188 -716.5224609375 285.9835205078125 -716.3050537109375 285.9835205078125 M -715.5018310546875 327.3414001464844 C -716.3807983398438 327.3414611816406 -717.2107543945312 327.00927734375 -718.0961303710938 326.5825500488281 C -720.911376953125 325.2259521484375 -723.7374877929688 323.8925170898438 -726.5616455078125 322.5547180175781 C -730.3038330078125 320.7822265625 -734.0423583984375 319.0011596679688 -737.79736328125 317.2559509277344 C -738.6232299804688 316.8722534179688 -738.9968872070312 316.3409729003906 -738.9940795898438 315.41162109375 C -738.9719848632812 308.1231079101562 -738.9689331054688 300.8343505859375 -738.9909057617188 293.5458374023438 C -738.9968872070312 291.5961608886719 -738.6280517578125 291.642578125 -737.1500854492188 291.1202697753906 C -734.078369140625 290.0345153808594 -730.9788208007812 289.0277709960938 -727.8862915039062 288.0015258789062 C -725.0274047851562 287.0525817871094 -722.161865234375 286.1233825683594 -719.3011474609375 285.1790466308594 C -718.5471801757812 284.9300842285156 -717.7881469726562 284.6884155273438 -717.0541381835938 284.3877563476562 C -716.0265502929688 283.9668579101562 -715.16015625 284.5487670898438 -714.2766723632812 284.8320617675781 C -711.3285522460938 285.7773742675781 -708.4098510742188 286.8136901855469 -705.4756469726562 287.8021240234375 C -702.3349609375 288.8601989746094 -699.1892700195312 289.9037780761719 -696.045654296875 290.9535217285156 C -695.5811767578125 291.1086730957031 -695.1251220703125 291.3012084960938 -694.6497192382812 291.4095764160156 C -693.8731689453125 291.587158203125 -693.6864013671875 292.0911560058594 -693.6972045898438 292.8108215332031 C -693.7227783203125 294.5157165527344 -693.708740234375 296.2211608886719 -693.7049560546875 297.9265441894531 C -693.70361328125 298.5646362304688 -693.8252563476562 299.1011657714844 -694.62060546875 299.1116027832031 C -695.3925170898438 299.1207580566406 -695.5072021484375 298.5467834472656 -695.5325317382812 297.9857788085938 C -695.5758666992188 297.0250854492188 -695.543701171875 296.0610961914062 -695.5609130859375 295.0987243652344 C -695.5665283203125 294.7840881347656 -695.6275024414062 294.47021484375 -695.67529296875 294.04638671875 C -696.9369506835938 294.5773620605469 -698.0905151367188 295.0492553710938 -699.232666015625 295.54638671875 C -703.6823120117188 297.4822998046875 -708.128173828125 299.42626953125 -712.5752563476562 301.3674621582031 C -712.625732421875 301.3895263671875 -712.6729125976562 301.4227600097656 -712.7252807617188 301.4355163574219 C -714.3944702148438 301.8419189453125 -714.7738037109375 302.9002380371094 -714.7334594726562 304.5650634765625 C -714.6099243164062 309.6780090332031 -714.6884765625 314.7957153320312 -714.6884765625 319.9114990234375 L -714.6884765625 321.0587158203125 C -712.8760375976562 320.1615600585938 -711.2413940429688 319.3518676757812 -709.6060791015625 318.5433349609375 C -708.7694702148438 318.1295776367188 -707.9251098632812 317.7305908203125 -707.0962524414062 317.3013000488281 C -706.5073852539062 316.9961547851562 -706.0440063476562 317.2103576660156 -705.7491455078125 317.6891479492188 C -705.4429321289062 318.1866149902344 -705.641357421875 318.6912841796875 -706.13134765625 318.9611511230469 C -707.3069458007812 319.6089172363281 -708.5064697265625 320.2139282226562 -709.7068481445312 320.8149108886719 C -710.6494140625 321.2867736816406 -710.8007202148438 321.6559448242188 -710.3753051757812 322.8739929199219 C -708.997802734375 322.1791381835938 -707.6812744140625 321.5154418945312 -706.3655395507812 320.8504028320312 C -706.267333984375 320.8009338378906 -706.180419921875 320.7196655273438 -706.0776977539062 320.6912536621094 C -705.4724731445312 320.5233154296875 -704.8223876953125 320.2469482421875 -704.3516845703125 320.906494140625 C -703.9847412109375 321.4211730957031 -704.2410888671875 321.9828186035156 -705.125732421875 322.4383239746094 C -707.9041137695312 323.8689880371094 -710.798828125 325.1022338867188 -713.46142578125 326.7195434570312 C -714.1942749023438 327.164794921875 -714.861083984375 327.3413696289062 -715.5018310546875 327.3414001464844 Z M -712.8054809570312 322.5042114257812 C -714.6725463867188 323.1106567382812 -714.999267578125 323.364990234375 -714.4979858398438 324.8641357421875 C -712.6785278320312 324.178466796875 -712.5133056640625 323.9481506347656 -712.8054809570312 322.5042114257812 Z M -717.9775390625 322.7061462402344 C -718.135498046875 322.7061462402344 -718.4257202148438 322.9504089355469 -718.4661254882812 323.1183776855469 C -718.6843872070312 324.0275573730469 -718.0382690429688 324.6309509277344 -716.8411865234375 324.6902770996094 C -716.448486328125 323.5100708007812 -716.781494140625 322.8864135742188 -717.9574584960938 322.7075805664062 C -717.9638671875 322.7066040039062 -717.9705810546875 322.7061462402344 -717.9775390625 322.7061462402344 Z M -733.322021484375 315.5279235839844 C -733.6127319335938 315.5279235839844 -733.7009887695312 315.8249816894531 -733.6886596679688 316.5801391601562 C -733.6512451171875 316.790283203125 -733.3178100585938 317.11328125 -732.9708862304688 317.3302612304688 C -732.464111328125 317.6468200683594 -731.8749389648438 317.8293151855469 -731.3292846679688 318.0867004394531 C -728.056884765625 319.6302185058594 -724.7901000976562 321.1854553222656 -721.5101318359375 322.7123718261719 C -721.272705078125 322.8227844238281 -720.883544921875 322.8408508300781 -720.6808471679688 322.7150573730469 C -720.5319213867188 322.6227722167969 -720.4701538085938 322.1850891113281 -720.5529174804688 321.9729309082031 C -720.669677734375 321.6734008789062 -720.904052734375 321.34326171875 -721.1788940429688 321.1959533691406 C -722.216552734375 320.6395568847656 -723.2865600585938 320.1419677734375 -724.3529663085938 319.6405639648438 C -727.1784057617188 318.3118591308594 -730.005615234375 316.986083984375 -732.8388671875 315.6742858886719 C -733.0408935546875 315.5807495117188 -733.199462890625 315.5279235839844 -733.322021484375 315.5279235839844 Z M -736.8985595703125 293.9640502929688 C -736.9388427734375 294.3848876953125 -736.9815063476562 294.6243896484375 -736.9818115234375 294.8638000488281 C -736.985595703125 300.1445617675781 -736.976318359375 305.4254455566406 -736.995361328125 310.7059936523438 C -736.9976196289062 311.3343505859375 -736.7208862304688 311.64111328125 -736.1917114257812 311.8894348144531 C -730.828857421875 314.4066772460938 -725.4744262695312 316.9424438476562 -720.114013671875 319.4652404785156 C -719.0377197265625 319.9717407226562 -717.9459838867188 320.4456481933594 -716.7675170898438 320.9767150878906 C -716.72900390625 320.5975036621094 -716.68359375 320.3577575683594 -716.6834106445312 320.1179504394531 C -716.6796264648438 314.4520874023438 -716.6915283203125 308.7862854003906 -716.6663818359375 303.1206665039062 C -716.663330078125 302.4419250488281 -716.9806518554688 302.1069030761719 -717.5255126953125 301.8822631835938 C -719.095458984375 301.2349548339844 -720.67041015625 300.5997924804688 -722.24169921875 299.9552917480469 C -725.7904663085938 298.4994506835938 -729.337158203125 297.0390014648438 -732.886474609375 295.5848388671875 C -734.1702880859375 295.058837890625 -735.4591674804688 294.5449829101562 -736.8985595703125 293.9640502929688 Z M -736.906005859375 313.9165649414062 C -737.4519653320312 315.1839294433594 -737.1824340820312 315.4235229492188 -735.8750610351562 315.8604125976562 C -735.4141235351562 314.626953125 -735.7481079101562 314.026611328125 -736.906005859375 313.9165649414062 Z M -706.4381103515625 289.5671081542969 C -706.6036987304688 289.5671081542969 -706.7747802734375 289.5987854003906 -706.915771484375 289.654541015625 C -708.47021484375 290.2681579589844 -710.00927734375 290.921142578125 -711.5590209960938 291.5475158691406 C -714.8126831054688 292.8624572753906 -718.0706176757812 294.1670837402344 -721.3250122070312 295.4804382324219 C -722.3521728515625 295.8949279785156 -723.3731689453125 296.3235778808594 -724.63134765625 296.8424377441406 C -722.1192016601562 297.8683776855469 -719.787353515625 298.6411743164062 -717.6353759765625 299.7598876953125 C -716.093017578125 300.5615234375 -714.8768920898438 300.3143615722656 -713.4561767578125 299.6265258789062 C -711.165771484375 298.5179138183594 -708.8056030273438 297.5535888671875 -706.4716796875 296.5357360839844 C -704.9651489257812 295.878662109375 -703.4506225585938 295.2399291992188 -701.9432983398438 294.5839233398438 C -700.5657348632812 293.9844970703125 -699.1934814453125 293.3729553222656 -697.6561279296875 292.6951293945312 C -697.9332275390625 292.474853515625 -698.0396728515625 292.3355407714844 -698.177978515625 292.2882385253906 C -700.8214721679688 291.3861694335938 -703.4661254882812 290.4876708984375 -706.1189575195312 289.613525390625 C -706.2152709960938 289.581787109375 -706.325439453125 289.5671081542969 -706.4381103515625 289.5671081542969 Z M -716.3050537109375 286.3835144042969 C -716.4722290039062 286.3835144042969 -716.63623046875 286.4042358398438 -716.7825317382812 286.4506225585938 C -719.5469360351562 287.3267517089844 -722.3011474609375 288.236328125 -725.0525512695312 289.1529846191406 C -727.6990966796875 290.0345153808594 -730.339599609375 290.9339904785156 -732.9803466796875 291.8326721191406 C -733.53173828125 292.0201721191406 -734.0728759765625 292.2381286621094 -734.8303833007812 292.5212707519531 C -734.4744262695312 292.7427062988281 -734.3707885742188 292.8280944824219 -734.2521362304688 292.8778381347656 C -732.1543579101562 293.7566528320312 -730.06494140625 294.6564331054688 -727.9470825195312 295.4839172363281 C -727.5527954101562 295.6380310058594 -726.9991455078125 295.6189880371094 -726.5945434570312 295.472412109375 C -725.0497436523438 294.9131469726562 -723.5335693359375 294.2747497558594 -722.0107421875 293.6559753417969 C -719.1439819335938 292.4909973144531 -716.2793579101562 291.3216552734375 -713.4158325195312 290.1494445800781 C -712.2401123046875 289.668212890625 -711.0697021484375 289.1752319335938 -709.7017211914062 288.6064147949219 C -710.0817260742188 288.3956604003906 -710.24951171875 288.266845703125 -710.439208984375 288.2030334472656 C -712.17333984375 287.6185302734375 -713.9063110351562 287.0287780761719 -715.6529541015625 286.4829711914062 C -715.8526611328125 286.4205627441406 -716.0816650390625 286.3835144042969 -716.3050537109375 286.3835144042969 Z" stroke="none" fill="#4669b2"/>
    </g>
    <g id="Path_209513" data-name="Path 209513" transform="translate(-168.354 -85.014)" fill="#4669b2">
      <path d="M -527.48779296875 412.2489624023438 C -527.722900390625 412.2489624023438 -527.9772338867188 412.1328125 -528.2881469726562 411.8834533691406 C -530.092041015625 410.4368286132812 -531.770263671875 408.5650939941406 -533.5696411132812 405.9930725097656 C -534.9569702148438 404.0101318359375 -535.9777221679688 401.8359069824219 -536.6035766601562 399.5307312011719 C -537.1267700195312 397.6040344238281 -537.2724609375 395.9055480957031 -537.0488891601562 394.3382873535156 C -536.8001708984375 392.5944519042969 -536.102294921875 391.0464172363281 -534.9154052734375 389.6056213378906 C -534.0908203125 388.6045837402344 -532.932861328125 387.7596435546875 -531.5667114257812 387.1621704101562 C -530.2251586914062 386.575439453125 -528.7760009765625 386.2653198242188 -527.3758544921875 386.2653198242188 C -526.6036376953125 386.2653198242188 -525.866943359375 386.36083984375 -525.1861572265625 386.5492553710938 C -523.61376953125 386.9844665527344 -522.2717895507812 387.6573181152344 -521.1973876953125 388.5491333007812 C -520.07177734375 389.4834899902344 -519.2048950195312 390.6876525878906 -518.6207885742188 392.1282043457031 C -518.303466796875 392.9109191894531 -518.1426391601562 393.7837829589844 -517.987060546875 394.6278991699219 C -517.9166870117188 395.0100402832031 -517.8438720703125 395.4049377441406 -517.7571411132812 395.789794921875 C -517.9395751953125 399.1460266113281 -519.0771484375 402.3195495605469 -521.3358154296875 405.7740173339844 C -522.772216796875 407.9711303710938 -524.53857421875 409.9731750488281 -526.7359008789062 411.8945922851562 C -527.0086059570312 412.133056640625 -527.2545166015625 412.2489624023438 -527.48779296875 412.2489624023438 Z M -527.46337890625 387.7267150878906 C -528.2229614257812 387.7267150878906 -529.002197265625 387.8203735351562 -529.779541015625 388.0050659179688 C -533.3313598632812 388.8489685058594 -535.8753051757812 392.1800231933594 -535.828369140625 395.9255981445312 L -535.8281860351562 395.9444885253906 L -535.8244018554688 395.9630126953125 C -535.7430419921875 396.3626403808594 -535.6710205078125 396.7738037109375 -535.6013793945312 397.1714172363281 C -535.447509765625 398.0498046875 -535.2884521484375 398.9580688476562 -535.0158081054688 399.8215637207031 C -533.9156494140625 403.3031311035156 -531.806396484375 406.5096740722656 -528.3777465820312 409.9128112792969 C -528.0606079101562 410.2278442382812 -527.781494140625 410.3746032714844 -527.4994506835938 410.3746337890625 C -527.4994506835938 410.3746337890625 -527.4994506835938 410.3746337890625 -527.4993896484375 410.3746337890625 C -527.2127075195312 410.3746337890625 -526.9448852539062 410.2242736816406 -526.656494140625 409.9014892578125 C -526.3623046875 409.5719909667969 -526.0582885742188 409.2400817871094 -525.7643432617188 408.9190979003906 C -525.1088256835938 408.203369140625 -524.4310302734375 407.4632873535156 -523.81005859375 406.6945190429688 C -521.2387084960938 403.5115966796875 -519.8086547851562 400.2777404785156 -519.4382934570312 396.8082275390625 C -519.1732788085938 394.3250427246094 -519.8671264648438 392.0233154296875 -521.3919677734375 390.3270874023438 C -522.8994140625 388.6502075195312 -525.0556030273438 387.7267150878906 -527.46337890625 387.7267150878906 Z" stroke="none"/>
      <path d="M -527.3758544921875 386.4653015136719 C -528.7486572265625 386.4653015136719 -530.1701049804688 386.7696533203125 -531.486572265625 387.3453979492188 C -532.8240356445312 387.9303283691406 -533.956298828125 388.7558898925781 -534.7610473632812 389.7327880859375 C -536.96533203125 392.4086303710938 -537.4894409179688 395.5053405761719 -536.4105224609375 399.4783325195312 C -535.790771484375 401.7611389160156 -534.77978515625 403.9144592285156 -533.40576171875 405.87841796875 C -531.6176147460938 408.4344482421875 -529.95166015625 410.2929992675781 -528.1630249023438 411.7274475097656 C -527.8894653320312 411.94677734375 -527.6749267578125 412.0489501953125 -527.4877319335938 412.0489501953125 C -527.3050537109375 412.0489501953125 -527.1021728515625 411.94921875 -526.8675537109375 411.7440490722656 C -524.6841430664062 409.8348083496094 -522.9295043945312 407.84619140625 -521.5032348632812 405.6645812988281 C -519.2708129882812 402.2502136230469 -518.1435546875 399.1160583496094 -517.9583740234375 395.8065185546875 C -518.0432739257812 395.4265747070312 -518.1146240234375 395.0392761230469 -518.1837768554688 394.6642150878906 C -518.3446044921875 393.79150390625 -518.4964599609375 392.9671936035156 -518.8060913085938 392.2033386230469 C -519.377685546875 390.7937316894531 -520.2252197265625 389.6160583496094 -521.3251342773438 388.7030334472656 C -522.3776245117188 387.8294067382812 -523.694580078125 387.1696166992188 -525.239501953125 386.7420043945312 C -525.9028930664062 386.5584106445312 -526.6216430664062 386.4653015136719 -527.3758544921875 386.4653015136719 M -527.4994506835938 410.5746154785156 C -527.8377685546875 410.5746154785156 -528.16162109375 410.4093933105469 -528.5186767578125 410.0547790527344 C -531.9711303710938 406.6279602050781 -534.0962524414062 403.3954467773438 -535.20654296875 399.8817749023438 C -535.483154296875 399.0056457519531 -535.6433715820312 398.0907287597656 -535.79833984375 397.2059326171875 C -535.8677978515625 396.8096313476562 -535.9395141601562 396.3998413085938 -536.0203857421875 396.0028991699219 L -536.0278930664062 395.9658813476562 L -536.0283813476562 395.9281005859375 C -536.0764770507812 392.0897827148438 -533.4678344726562 388.6758117675781 -529.8257446289062 387.8104858398438 C -529.0333251953125 387.6221923828125 -528.23876953125 387.5267028808594 -527.4633178710938 387.5267028808594 C -524.9979248046875 387.5269165039062 -522.7887573242188 388.4741516113281 -521.242919921875 390.1938781738281 C -519.6798706054688 391.9327697753906 -518.9683227539062 394.289306640625 -519.2393798828125 396.8294372558594 C -519.614013671875 400.3384094238281 -521.0581665039062 403.6064147949219 -523.6544799804688 406.8201904296875 C -524.2793579101562 407.5938110351562 -524.9592895507812 408.3362426757812 -525.6168823242188 409.05419921875 C -525.910400390625 409.3747253417969 -526.2139282226562 409.7061767578125 -526.50732421875 410.0347290039062 C -526.8318481445312 410.3980102539062 -527.1563720703125 410.5746154785156 -527.4994506835938 410.5746154785156 M -527.3758544921875 386.0653076171875 C -526.6031494140625 386.0653076171875 -525.8455810546875 386.1592407226562 -525.1328125 386.3565063476562 C -522.000732421875 387.223388671875 -519.6622924804688 389.0274047851562 -518.4354248046875 392.0530395507812 C -517.96240234375 393.219970703125 -517.8388061523438 394.5286865234375 -517.5559692382812 395.7727661132812 C -517.7559814453125 399.5634155273438 -519.1699829101562 402.8269653320312 -521.16845703125 405.8834838867188 C -522.6810913085938 408.197265625 -524.5213623046875 410.2238159179688 -526.604248046875 412.045166015625 C -527.2783813476562 412.6346740722656 -527.7996215820312 412.5316772460938 -528.4132690429688 412.0394897460938 C -530.51416015625 410.3546752929688 -532.2025756835938 408.2960815429688 -533.7335205078125 406.1077270507812 C -535.1271362304688 404.1157836914062 -536.1565551757812 401.9404907226562 -536.7965698242188 399.5831298828125 C -537.7853393554688 395.9420776367188 -537.584228515625 392.5308227539062 -535.0697631835938 389.4784545898438 C -533.3279418945312 387.3638916015625 -530.24853515625 386.0653076171875 -527.3758544921875 386.0653076171875 Z M -527.4994506835938 410.1746215820312 C -527.267822265625 410.1746215820312 -527.0458984375 410.0371704101562 -526.8056640625 409.7682495117188 C -525.8557739257812 408.7045288085938 -524.8607177734375 407.677001953125 -523.9656372070312 406.56884765625 C -521.6498413085938 403.7022705078125 -520.0364379882812 400.5272827148438 -519.6371459960938 396.7869873046875 C -519.0118408203125 390.9274597167969 -523.8587646484375 386.8035583496094 -529.7332763671875 388.1996459960938 C -533.0969848632812 388.9988403320312 -535.6760864257812 392.1168212890625 -535.62841796875 395.923095703125 C -535.367431640625 397.2047729492188 -535.2166137695312 398.521240234375 -534.8250732421875 399.7613525390625 C -533.5777587890625 403.7086791992188 -531.1376342773438 406.8916625976562 -528.2368774414062 409.7708740234375 C -527.9639892578125 410.0419311523438 -527.7269897460938 410.1746215820312 -527.4994506835938 410.1746215820312 Z" stroke="none" fill="#4669b2"/>
    </g>
    <g id="Path_209514" data-name="Path 209514" transform="translate(-190.059 -105.805)" fill="#4669b2">
      <path d="M -506.3067932128906 421.4314880371094 C -507.4228820800781 421.4316101074219 -508.6018981933594 420.8824462890625 -509.5415954589844 419.9248657226562 C -510.5744323730469 418.8723449707031 -511.1764221191406 417.4730529785156 -511.1519165039062 416.1817932128906 C -511.1297912597656 415.0200805664062 -510.5375061035156 413.748779296875 -509.5675048828125 412.7810974121094 C -508.524169921875 411.7402648925781 -507.205078125 411.1670532226562 -505.8531799316406 411.1670532226562 C -505.7698059082031 411.1670532226562 -505.6852416992188 411.1692810058594 -505.6018676757812 411.1736755371094 C -504.184326171875 411.2486572265625 -502.8777770996094 411.8273620605469 -501.9229431152344 412.8031921386719 C -500.9907836914062 413.7557983398438 -500.4698486328125 414.99755859375 -500.4560852050781 416.2997131347656 C -500.4421691894531 417.6214904785156 -500.9933776855469 418.9446716308594 -501.9684143066406 419.9300231933594 C -502.9191284179688 420.8908081054688 -504.1656494140625 421.4199523925781 -505.4783630371094 421.4199523925781 C -505.6026916503906 421.4199523925781 -505.7291870117188 421.4151611328125 -505.8543090820312 421.40576171875 L -505.8739013671875 421.4042663574219 L -505.8934020996094 421.4066467285156 C -506.0292053222656 421.4231262207031 -506.1683044433594 421.4314880371094 -506.3067932128906 421.4314880371094 Z M -505.7298889160156 412.6465759277344 L -505.7760620117188 412.6468505859375 C -508.0130920410156 412.6706237792969 -509.6481018066406 414.1716003417969 -509.7520751953125 416.2969360351562 C -509.795166015625 417.1754760742188 -509.4248352050781 418.0942687988281 -508.736083984375 418.8176574707031 C -507.9877319335938 419.6036071777344 -506.9859924316406 420.0544128417969 -505.9877624511719 420.054443359375 C -505.9635009765625 420.054443359375 -505.9393005371094 420.0541687011719 -505.9149780273438 420.0536193847656 C -504.6934509277344 420.0265808105469 -503.6069030761719 419.5582275390625 -502.85546875 418.7348022460938 C -502.2233581542969 418.0421142578125 -501.9078979492188 417.1781921386719 -501.9667663574219 416.3013610839844 C -501.9734497070312 414.2174072265625 -503.5900573730469 412.6465759277344 -505.7298889160156 412.6465759277344 Z" stroke="none"/>
      <path d="M -506.3068237304688 421.2315063476562 L -506.3068237304688 421.2315063476562 C -506.1763000488281 421.2314758300781 -506.0452880859375 421.2236022949219 -505.9175109863281 421.2080993652344 L -505.8785095214844 421.203369140625 L -505.8393249511719 421.2063293457031 C -504.4509887695312 421.3107299804688 -503.1099853515625 420.79931640625 -502.110595703125 419.7893371582031 C -501.1728515625 418.8417053222656 -500.6427001953125 417.570556640625 -500.6560668945312 416.3018493652344 C -500.6692810058594 415.0514831542969 -501.1699829101562 413.858642578125 -502.0658874511719 412.9430541992188 C -502.9855651855469 412.003173828125 -504.2450866699219 411.4457397460938 -505.6124572753906 411.3734130859375 C -505.6923217773438 411.3691711425781 -505.7733154296875 411.3670349121094 -505.8531799316406 411.3670349121094 C -508.6730651855469 411.3670349121094 -510.9095458984375 413.9573059082031 -510.9519348144531 416.1855773925781 C -510.9754638671875 417.4242858886719 -510.3948669433594 418.769775390625 -509.3988647460938 419.7847595214844 C -508.4965515136719 420.7042846679688 -507.3695373535156 421.2315979003906 -506.3068237304688 421.2315063476562 M -505.7298889160156 412.4465942382812 C -503.4783935546875 412.4465942382812 -501.7769470214844 414.0997619628906 -501.7667846679688 416.2943725585938 C -501.7062072753906 417.2239074707031 -502.0400390625 418.1379699707031 -502.7077331542969 418.86962890625 C -503.4963684082031 419.7338256835938 -504.6338500976562 420.2253112792969 -505.9104919433594 420.2535705566406 C -506.9905395507812 420.2780456542969 -508.0757751464844 419.8012084960938 -508.8809204101562 418.95556640625 C -509.6072692871094 418.1927185058594 -509.9975891113281 417.2201232910156 -509.9518432617188 416.2871398925781 C -509.8424377441406 414.0509948730469 -508.1261596679688 412.4718017578125 -505.7782592773438 412.4468383789062 C -505.7620849609375 412.4466857910156 -505.7460021972656 412.4465942382812 -505.7298889160156 412.4465942382812 M -506.3067626953125 421.6315002441406 C -508.9136047363281 421.6317443847656 -511.4030151367188 418.873291015625 -511.3518676757812 416.177978515625 C -511.3031311035156 413.6177673339844 -508.7064514160156 410.8088989257812 -505.59130859375 410.9739685058594 C -502.5122680664062 411.1368408203125 -500.2852172851562 413.5414428710938 -500.256103515625 416.297607421875 C -500.226318359375 419.1250305175781 -502.6840515136719 421.8443908691406 -505.8693237304688 421.6051940917969 C -506.0151062011719 421.6228637695312 -506.1612854003906 421.6314697265625 -506.3067626953125 421.6315002441406 Z M -505.7298889160156 412.8465881347656 C -505.7445373535156 412.8465881347656 -505.7592163085938 412.8466796875 -505.77392578125 412.8468322753906 C -507.9242553710938 412.8696899414062 -509.4544677734375 414.3069458007812 -509.5523071289062 416.3067016601562 C -509.6422729492188 418.1409301757812 -507.8333129882812 419.8962097167969 -505.91943359375 419.8536682128906 C -503.6085815429688 419.8025207519531 -502.0428466796875 418.0952758789062 -502.166748046875 416.3083801269531 C -502.1697082519531 414.3414611816406 -503.7080383300781 412.8465881347656 -505.7298889160156 412.8465881347656 Z" stroke="none" fill="#4669b2"/>
    </g>
  </g>
</svg>
