<svg xmlns="http://www.w3.org/2000/svg" width="58.843" height="56.671" viewBox="0 0 58.843 56.671">
  <g id="Group_97599" data-name="Group 97599" transform="translate(-774.045 -406.019)">
    <path id="Path_209508" data-name="Path 209508" d="M803.495,561.945a14.294,14.294,0,0,1-5.567-1.213,48.8,48.8,0,0,1-5.773-2.917c-1.859-1.13-3.578-2.5-5.322-3.807a23.332,23.332,0,0,1-2.167-1.934c-1.155-1.119-2.317-2.235-3.4-3.419a42,42,0,0,1-2.784-3.356c-.993-1.337-1.933-2.719-2.814-4.133a26.348,26.348,0,0,1-3.646-8.946,8.215,8.215,0,0,1,.089-3.878,3.155,3.155,0,0,1,.582-1.15,16.365,16.365,0,0,1,3.588-3.415,3.7,3.7,0,0,1,4.872.391,14.375,14.375,0,0,1,3.609,4.752,3.884,3.884,0,0,1-.78,4.864c-.566.572-1.127,1.153-1.642,1.77a1.9,1.9,0,0,0-.214,1.743,8.839,8.839,0,0,0,1.734,3.242c.654.865,1.367,1.687,2.082,2.5s1.448,1.675,2.246,2.435a40.187,40.187,0,0,0,5.9,5.046,6.018,6.018,0,0,0,3.128,1.251,2.2,2.2,0,0,0,1.571-.764c.652-.6,1.264-1.255,1.965-1.793a3.561,3.561,0,0,1,3.734-.357,14.046,14.046,0,0,1,4.036,2.659,7.669,7.669,0,0,1,1.8,2.183,3.377,3.377,0,0,1-.154,3.579,15.463,15.463,0,0,1-3.712,3.914A4.548,4.548,0,0,1,803.495,561.945Z" transform="translate(2.215 -99.255)" fill="#4669b2"/>
    <path id="Path_209509" data-name="Path 209509" d="M915.934,433.23c.985-.6,1.861-1.133,2.74-1.663a12.935,12.935,0,0,1,1.424-.817.694.694,0,0,0,.414-.873A23.312,23.312,0,0,0,908.831,412.9a23.81,23.81,0,0,0-6.556-2.48,9.492,9.492,0,0,0-1.661-.284.954.954,0,0,0-.686.423c-.793,1.276-1.542,2.58-2.308,3.873a2.39,2.39,0,0,1-.2.237c-.227-.364-.436-.688-.634-1.018-.648-1.082-1.28-2.175-1.953-3.242a.706.706,0,0,0-.583-.277c-1.587.36-3.2.662-4.736,1.176a21.931,21.931,0,0,0-6.655,3.745,22.951,22.951,0,0,0-4.591,4.954.992.992,0,0,1-.181.141c-.131-.117-.269-.236-.4-.361-.7-.655-1.37-1.342-2.1-1.953-.3-.251-.325-.392-.1-.67.439-.536.815-1.131,1.3-1.624,1.066-1.089,2.155-2.16,3.284-3.183a23.456,23.456,0,0,1,5.759-3.738,26.571,26.571,0,0,1,7.345-2.255,28.057,28.057,0,0,1,5.74-.313,26.844,26.844,0,0,1,8.157,1.717,27.635,27.635,0,0,1,6.828,3.8,27.267,27.267,0,0,1,4.352,4.185,25.4,25.4,0,0,1,3.613,5.5,27.894,27.894,0,0,1,2.518,8.218,29.192,29.192,0,0,1,.178,5.869,26.121,26.121,0,0,1-2.111,8.552,25.235,25.235,0,0,1-3.826,6.363,26.556,26.556,0,0,1-7.468,6.418c-.224.125-.443.257-.721.419a8.429,8.429,0,0,0-.374-3.907.59.59,0,0,1,.2-.493c1.189-.982,2.453-1.88,3.577-2.93a20.285,20.285,0,0,0,2.392-2.776,21.938,21.938,0,0,0,3.514-7.044c.314-1.1.534-2.225.771-3.344a.8.8,0,0,0-.469-.964C918.694,434.9,917.385,434.088,915.934,433.23Z" transform="translate(-91.734)" fill="#4669b2"/>
    <path id="Path_209510" data-name="Path 209510" d="M965.006,567.158l-2.482-1.65a5.359,5.359,0,0,1,1.917-2.169,5.943,5.943,0,0,1,5.826-.472,4.181,4.181,0,0,1,2.569,4.374,5.233,5.233,0,0,1-2.289,3.9c-.9.679-1.866,1.273-2.809,1.9a2.054,2.054,0,0,0-.989,1.484c.2.009.4.026.6.027,1.761,0,3.523.016,5.285,0,.425,0,.565.133.55.554-.027.791-.008,1.583-.008,2.42-.236.015-.418.035-.6.035-3.107,0-6.213-.007-9.319.01-.475,0-.6-.157-.625-.621a6.91,6.91,0,0,1,.54-3.556,8.985,8.985,0,0,1,2.749-3.025c.864-.662,1.765-1.279,2.6-1.978a1.45,1.45,0,0,0,.368-1.977,1.8,1.8,0,0,0-2.134-.558A17.832,17.832,0,0,0,965.006,567.158Z" transform="translate(-169.014 -138.531)" fill="#4669b2"/>
    <path id="Path_209511" data-name="Path 209511" d="M1080.317,564.884v8.342h1.731V576.2h-1.713v3.575h-3.513v-3.555h-6.761a4.753,4.753,0,0,1,.445-2.916c1.745-2.629,3.409-5.312,5.083-7.988a.833.833,0,0,1,.824-.443C1077.68,564.9,1078.947,564.884,1080.317,564.884Zm-6.574,8.3h3.049V568.3Z" transform="translate(-264.307 -140.798)" fill="#4669b2"/>
  </g>
</svg>
