<svg xmlns="http://www.w3.org/2000/svg" width="16.986" height="26.252" viewBox="0 0 16.986 26.252">
  <g id="touch" transform="translate(-1437.558 -408.718)">
    <path id="Path_209406" data-name="Path 209406" d="M1441.883,455.875a1.5,1.5,0,0,0,.044-.555q0-3.864,0-7.729a2.113,2.113,0,0,1,1.588-2.191,2.01,2.01,0,0,1,2.4,1.8c.019.526.005,1.053.006,1.58q0,.767,0,1.536c.209.042.36-.095.54-.117a1.983,1.983,0,0,1,1.912.789.273.273,0,0,0,.414.1,1.937,1.937,0,0,1,2.552.769c.144.225.234.24.458.141a2.015,2.015,0,0,1,2.72,1.817c-.007,1.964.087,3.93-.065,5.89a19.08,19.08,0,0,1-1.077,4.8,15.35,15.35,0,0,0-.744,3.266c-.076.643-.153.7-.809.7h-8.881c-.637,0-.68-.078-.72-.709-.056-.879-.031-1.762-.152-2.638a3.928,3.928,0,0,0-.58-1.584c-1.11-1.75-2.109-3.569-3.269-5.289a3.85,3.85,0,0,1-.63-1.521,1.871,1.871,0,0,1,.726-1.924,1.828,1.828,0,0,1,2.041-.157A5.943,5.943,0,0,1,1441.883,455.875Z" transform="translate(0 -33.503)" fill="#fff"/>
    <path id="Path_209407" data-name="Path 209407" d="M1457.41,414.156a5.955,5.955,0,0,1-.164,1.562c-.075.329-.285.5-.523.448-.272-.057-.383-.269-.293-.645a4.638,4.638,0,0,0-.837-4.11,4.591,4.591,0,0,0-4.516-1.794,4.434,4.434,0,0,0-3.775,2.978,4.643,4.643,0,0,0,1.092,5.071c.328.352.39.553.2.76-.216.229-.443.189-.792-.18a5.546,5.546,0,0,1,2.379-9.28,5.63,5.63,0,0,1,7.105,4.22C1457.354,413.524,1457.371,413.861,1457.41,414.156Z" transform="translate(-7.855 0)" fill="#fff"/>
    <path id="Path_209408" data-name="Path 209408" d="M1451.73,460.978q0-2.306,0-4.612a1.571,1.571,0,0,1,.124-.706,1.162,1.162,0,0,1,1.342-.579,1.035,1.035,0,0,1,.843.9,5.506,5.506,0,0,1,.028.724c0,1.025,0,2.05-.006,3.075,0,.085,0,.171,0,.256a.448.448,0,0,0,.294.471.4.4,0,0,0,.48-.178,1.142,1.142,0,0,1,.88-.451,1.1,1.1,0,0,1,1.165.858c.056.211.092.426.345.486s.387-.1.535-.264a1.136,1.136,0,0,1,1.289-.3,1,1,0,0,1,.717.915c.006.057.02.112.026.169.019.2.075.37.293.419a.448.448,0,0,0,.49-.175,1.1,1.1,0,0,1,1.018-.417,1.044,1.044,0,0,1,1.048,1.029,57.286,57.286,0,0,1-.137,6.61,21.259,21.259,0,0,1-1.107,4.359,13.911,13.911,0,0,0-.584,2.61c-.042.286-.126.356-.412.354-2.534-.014-5.068-.008-7.6-.009-.788,0-.79,0-.822-.808a13.545,13.545,0,0,0-.171-2.121,4.536,4.536,0,0,0-.617-1.573c-1.111-1.749-2.1-3.572-3.269-5.286a2.69,2.69,0,0,1-.565-1.534,1.006,1.006,0,0,1,1.464-.98,2.866,2.866,0,0,1,1,.705q.552.564,1.083,1.148c.155.171.313.292.553.209s.273-.3.273-.519Q1451.728,463.37,1451.73,460.978Z" transform="translate(-8.959 -42.379)" fill="#4e6be2" opacity="0.9"/>
  </g>
</svg>
