<svg xmlns="http://www.w3.org/2000/svg" width="45.632" height="32.738" viewBox="0 0 45.632 32.738">
  <g id="Group_64674" data-name="Group 64674" transform="translate(0 0)">
    <path id="Exclusion_3" data-name="Exclusion 3" d="M38.1,32.738c-.089,0-.175,0-.256-.009a4.145,4.145,0,0,1-3.74-4.225c0-.057,0-.119,0-.19H12.983c0,.057,0,.118,0,.189a4.125,4.125,0,0,1-4,4.234A4.125,4.125,0,0,1,5,28.5c0-.057,0-.118,0-.189H3a.553.553,0,0,1-.535-.567V23.135a.6.6,0,0,1,.01-.107A5.092,5.092,0,0,1,0,18.679V5.062a5.127,5.127,0,0,1,.077-.884A4.262,4.262,0,0,1,4.233.067,5.164,5.164,0,0,1,5.063,0H25.376a5.158,5.158,0,0,1,.829.067h.044a4.272,4.272,0,0,1,4.189,4.341v14.27a5.052,5.052,0,0,1-1.823,3.891H31.98l.136-11.311a.554.554,0,0,1,.535-.56,13.839,13.839,0,0,1,5.5,1.137,14.691,14.691,0,0,1,5.4,4.025l0,.005c.022.024.042.049.063.075l.118.143.032.039.006.008.006.008.022.027.005.006.005.006A8.329,8.329,0,0,1,45.632,21.4v6.348a.553.553,0,0,1-.535.567h-3c0,.057,0,.118,0,.189a4.146,4.146,0,0,1-3.739,4.226C38.279,32.735,38.195,32.738,38.1,32.738Z" fill="#7e92ac"/>
  </g>
</svg>
